<!-- Generator: Adobe Illustrator 24.0.0, SVG Export Plug-In  -->
<svg version="1.1" xmlns="http://www.w3.org/2000/svg" xmlns:xlink="http://www.w3.org/1999/xlink" x="0px" y="0px" width="87.3px"
	 height="112.1px" viewBox="0 0 87.3 112.1" style="enable-background:new 0 0 87.3 112.1;" xml:space="preserve">
<style type="text/css">
	.st0{fill:#F3D11F;}
	.st1{fill:#745A32;}
	.st2{fill:#262F31;}
	.st3{fill:#D7402C;}
	.st4{fill:#DF999E;}
	.st5{fill:#FFFFFF;}
	.st6{fill:#D2DBE4;}
</style>
<defs>
</defs>
<g id="XMLID_1_">
	<g>
		<path class="st0" d="M81.8,33.2c3,6.6,4.2,14.2,2.5,21.1C85.9,47.5,84.8,39.9,81.8,33.2z"/>
		<path class="st0" d="M84.3,54.4c-1,4.1-2.9,8-6,11.2C81.4,62.2,83.3,58.4,84.3,54.4z"/>
		<path class="st1" d="M69.6,42.7c4.4,3,8.6,6,12,8.9C77.5,48.7,73.5,45.7,69.6,42.7z"/>
		<path class="st0" d="M81.8,53.5c4.4-0.5-2.8-6-11.4-12C79.4,47.7,86.8,53.2,81.8,53.5z"/>
		<path class="st1" d="M82.3,85.7c-0.2-7.4-2.7-15.4-7-21.7C79.9,70.7,82.3,78.5,82.3,85.7z"/>
		<path class="st0" d="M81.8,53.5C79.9,53.7,75.9,53,69,51C75.8,52.9,79.8,53.6,81.8,53.5z"/>
		<path class="st0" d="M78.3,65.5c-0.9-1.8-2.3-3.4-3.7-4.9C76.1,62.1,77.5,63.6,78.3,65.5z"/>
		<path class="st0" d="M81.8,33.2c-2.1-4.6-5.1-8.7-8.6-12C76.8,24.4,79.7,28.6,81.8,33.2z"/>
		<path d="M66,42.9c3.8,2.6,7.6,4.9,10.5,6.6C73.1,47.9,69.6,45.5,66,42.9z"/>
		<path d="M65.7,41.6c3.8,2.7,7.4,5.3,10.7,7.9C73.2,47.4,69.5,44.5,65.7,41.6z"/>
		<path class="st0" d="M74.6,60.7c-2.1-2.1-4.4-4-5.2-6.8C70.3,56.3,72.5,58.4,74.6,60.7z"/>
		<path class="st0" d="M69.6,27.5c2.2-1.4,3.6-3.9,3.6-6.3C73.2,24.2,71.6,26.3,69.6,27.5z"/>
		<path class="st1" d="M69.6,57.5c1.7,7.5,1.1,13.4-0.5,18C70.3,71.1,70.8,65.2,69.6,57.5z"/>
		<path class="st1" d="M68.2,107.6c9.3-2.8,14-11.7,14-21.9C82.5,95.6,78.4,104.6,68.2,107.6L68.2,107.6z"/>
		<path class="st1" d="M69.6,57.5c2.1,1.8,4,4.1,5.7,6.5C73.7,61.7,71.8,59.5,69.6,57.5z"/>
		<path class="st1" d="M71.6,21.2c0.3,1.8-0.9,3.7-5.4,5.8C70.5,25,71.8,23.1,71.6,21.2z"/>
		<path class="st0" d="M69.4,53.8C69.1,52.9,68.9,52,69,51C69,52.1,69.1,53,69.4,53.8z"/>
		<path class="st1" d="M60.8,86.6c2.2-1.2,6.2-4.8,8.4-11.1C67.2,82.8,63.1,86,60.8,86.6z"/>
		<path class="st1" d="M67.1,14.5c1.8,2.3,4.3,4.5,4.5,6.8C71.2,19.1,68.9,17,67.1,14.5z"/>
		<path class="st1" d="M66.5,20.5c1.5,2.2,2.1,4.4-0.4,6.5C68.1,24.9,67.7,22.7,66.5,20.5z"/>
		<path d="M66.7,70c0.9,2.7-1,6.2-4.6,7.7C65,76.2,67.2,72.7,66.7,70z"/>
		<path class="st2" d="M67.6,56.7c-0.2-1.9,0.9-5.2-2.3-6.5C67.1,50.5,67.8,51.3,67.6,56.7z"/>
		<path class="st2" d="M67.6,56.7c-1.3-2.9-3.2-5.2-5.8-7c0,0,0-0.1,0-0.1c1.4,0.4,2.6,0.4,3.4,0.6C68.5,51.5,67.3,54.8,67.6,56.7z"
			/>
		<path class="st1" d="M65.2,8.4c-0.2,2.3,0.7,4.3,1.9,6C65.6,12.6,64.5,10.6,65.2,8.4z"/>
		<path class="st3" d="M62.4,51.7c3.9,3.7,6.3,9.8,6.7,15.6C68.7,61.5,66.2,55.4,62.4,51.7z"/>
		<path d="M62.9,66.7c2.4,0.5,3.6,1.7,3.8,3.3C66.3,68.6,65,67.4,62.9,66.7z"/>
		<path class="st0" d="M69.6,27.5c-1.9,1.2-4.3,1.7-6.8,0.8C64.9,29,67.5,28.7,69.6,27.5z"/>
		<path class="st4" d="M61.1,67.4c3.7,0.2,4.9,2.1,4.6,4.1C65.7,69.5,64.3,67.7,61.1,67.4z"/>
		<path class="st1" d="M61.9,12.5c-0.2-1.5,0.6-2.9,3.3-4.1C62.9,9.8,62,11.2,61.9,12.5z"/>
		<path class="st2" d="M65.3,50.2c-0.9-0.1-2-0.2-3.4-0.6C63.3,49.6,64.4,49.8,65.3,50.2z"/>
		<path class="st4" d="M65.7,71.6c-0.1,1.9-1.4,3.9-3.8,4.8l0,0C63.8,75.6,65.4,73.5,65.7,71.6z"/>
		<path d="M60.2,66.5c0.7,0,1.5,0,2.3,0.1c0.2,0,0.3,0.1,0.5,0.1C62.1,66.6,61.2,66.5,60.2,66.5z"/>
		<path class="st1" d="M61.9,12.5c0.3,2.4,3.1,5.2,4.6,8C64.7,17.9,61.7,15.2,61.9,12.5z"/>
		<path class="st1" d="M71.6,21.2c0.2,1.9-1.1,3.8-5.4,5.8c0,0-0.1,0-0.1,0c2.6-2.2,1.9-4.4,0.4-6.5c-1.5-2.8-4.3-5.6-4.6-8
			c0.1-1.4,1-2.7,3.3-4.1c-0.7,2.1,0.4,4.1,1.9,6C68.9,17,71.2,19.1,71.6,21.2z"/>
		<path class="st3" d="M61.9,81.9c5.4-2.3,7.5-8.3,7.2-14.6C69.5,73.7,67.4,79.7,61.9,81.9z"/>
		<path d="M60.9,59.2c0.9,0.6,1.6,1.2,1,1.7C62,60.4,61.6,59.7,60.9,59.2z"/>
		<path class="st0" d="M65,21.4c1.3,2.8,0.5,5-3.6,6.2C65.6,26.3,66,24,65,21.4z"/>
		<path class="st0" d="M61.5,27.6c0.4,0.3,0.9,0.5,1.3,0.6C62.3,28.1,61.9,27.9,61.5,27.6z"/>
		<path d="M76.5,49.5c-2.9-1.7-6.7-4-10.5-6.6c-4.5-3.3-9.2-7.1-13.9-10.3c0,0,0,0,0,0c-0.6-0.6-1.2-1.1-1.8-1.6
			c0.6,0.3,1.2,0.6,1.9,1c4.5,3.2,9.1,6.5,13.5,9.6C69.5,44.5,73.2,47.4,76.5,49.5z"/>
		<path d="M61.9,60.9c-0.1,0.4-0.4,0.6-1.1,0.4C61.3,61.2,61.7,61,61.9,60.9z"/>
		<path class="st4" d="M61.1,67.4c-1.3,0-2.5,0.3-3.5,0.8C58.7,67.6,59.9,67.3,61.1,67.4z"/>
		<path d="M58.3,42.2c2.2,1.9,4.4,3.6,6.1,4.4C63,46.1,60.7,44.4,58.3,42.2z"/>
		<path class="st0" d="M65,21.4c-0.7-1.6-2.2-3.4-4.1-5.3c-0.3-0.8-0.5-1.5-0.7-2C61.8,16.3,64.1,18.9,65,21.4z"/>
		<path d="M64.3,46.6c-2.7-2.6-5.2-5-7.6-7.2C59.5,42,62.2,44.4,64.3,46.6z"/>
		<path class="st4" d="M61.1,67.4c3.2,0.2,4.6,2.1,4.6,4.1c-0.3,2-1.9,4.1-3.8,4.8c-0.5,0.2-1.1,0.3-1.7,0.3
			c-2.6,0.3-4.3-0.1-5.3-0.8c-1.2-1.1-1.3-3-0.4-4.7c0.7-1.2,1.8-2.3,3.1-3C58.6,67.7,59.8,67.4,61.1,67.4z"/>
		<polygon points="60.8,61.2 60.8,61.2 60.8,61.2 		"/>
		<path d="M56.3,60.3c-1.6,0.4-3,1.5-4,2.6c-0.3,0.3-0.5,0.6-0.8,0.9c-0.2-0.1-0.4-0.2-0.5-0.3c0-0.6,0.2-1.2,0.6-1.8
			c0.9-1.1,2.4-2.2,3.7-2.9c0,0,0,0,0,0c0.7-0.3,1.5-0.4,2.4-0.5c0.3,0,0.6,0,0.9,0c0.7,0.1,1.6,0.5,2.3,0.9c0.7,0.6,1,1.3,1,1.7
			c-0.2,0.2-0.6,0.3-1.1,0.4c0,0,0,0,0,0c0,0,0,0,0,0c-0.5-0.4-1-0.7-1.5-0.9C58.3,60,57.3,60,56.3,60.3z"/>
		<path class="st1" d="M63.8,82.4c-2.9,2-4.3,3.3-4.6,4C58.9,85.8,60.1,84.3,63.8,82.4z"/>
		<path d="M59.3,60.4c0.5,0.2,1,0.5,1.5,0.9C60.3,60.9,59.8,60.6,59.3,60.4z"/>
		<path class="st1" d="M60.8,86.6c-1.2,0.6-1.9,0.6-1.5-0.2C59.4,86.7,60,86.8,60.8,86.6z"/>
		<path d="M58.6,58.2c1,0.1,1.7,0.5,2.3,0.9C60.2,58.7,59.3,58.4,58.6,58.2z"/>
		<path d="M62.1,77.7c-1,0.6-2.1,0.8-3.2,0.8C60.1,78.4,61.2,78.1,62.1,77.7z"/>
		<path d="M56.7,39.4c2.4,2.3,5,4.6,7.6,7.2c-1.7-0.8-3.9-2.4-6.1-4.4c-2.8-2.5-5.8-5.6-8-8c0,0-0.1-0.1-0.1-0.1
			c-0.9-1-1.6-2-2.1-2.7c1.7,1.7,3.5,3.3,5.2,4.9c0.2,0.2,0.3,0.3,0.5,0.5c0.3,0.3,0.6,0.5,0.9,0.8c0.4,0.4,0.8,0.8,1.2,1.1
			c0,0,0.1,0.1,0.1,0.1c0.1,0.1,0.3,0.3,0.4,0.4C56.6,39.2,56.6,39.3,56.7,39.4z"/>
		<path class="st1" d="M58,108.3c3.9,0.5,7.3,0.2,10.2-0.7l0,0c-2.7,0.8-5.8,1.2-9.3,1.1C58.6,108.7,58.3,108.5,58,108.3z"/>
		<path class="st1" d="M53.7,30.9c5.3,3.8,10.5,7.8,15.8,11.8C64,38.8,58.2,34.9,53.7,30.9z"/>
		<path class="st1" d="M57.2,46.7c6.4,1,14.2,2.6,24.3,5C70.5,49.7,63.4,47.8,57.2,46.7z"/>
		<path class="st0" d="M58.4,11.1c1.7,0.8,1.4,1.2,1.8,2.9c-0.8-1.1-1.4-2-1.6-2.8C58.6,11.2,58.5,11.2,58.4,11.1z"/>
		<path d="M58.6,58.2c-0.3,0-0.6,0-0.9,0C57.9,58.1,58.2,58.1,58.6,58.2z"/>
		<path class="st0" d="M52.1,28.4c3.6,3.2,11.5,8.3,18.3,13.1C63.6,36.9,55.9,31.8,52.1,28.4z"/>
		<path d="M57.8,58.2c-0.8,0-1.6,0.2-2.4,0.5C56.4,58.2,57.3,58,57.8,58.2z"/>
		<path class="st1" d="M58,108.3c-0.5-0.1-0.9-0.1-1.4-0.2c-0.1-0.6-0.3-1.3-0.5-1.9C56.6,107.2,57.3,107.9,58,108.3z"/>
		<path class="st3" d="M54.7,82.8c2.8,0.3,5.2-0.1,7.2-0.9C59.9,82.8,57.6,83.1,54.7,82.8z"/>
		<path d="M56.3,60.3c1-0.3,2-0.3,3,0.1C58.3,60,57.2,60,56.3,60.3z"/>
		<path d="M56.5,39.1c-0.1-0.1-0.3-0.3-0.4-0.4C56.2,38.9,56.3,39,56.5,39.1z"/>
		<path class="st1" d="M82.3,85.7c0,10.2-4.7,19.1-14,21.9c-2.9,0.9-6.4,1.2-10.2,0.7c-0.7-0.5-1.3-1.2-1.9-2.1
			c-1-4-2.1-8.2-3.3-12.6c0,0,0,0,0,0c-0.7-3.7-1.4-7.2-2.6-9.5c4.7,0.4,9.2,0,13.6-1.7c-3.8,1.9-4.9,3.4-4.6,4c0,0,0,0,0,0
			c-0.4,0.8,0.3,0.8,1.5,0.2c2.3-0.6,6.4-3.8,8.4-11.1c1.5-4.6,2.1-10.5,0.5-18c2.2,2,4.1,4.2,5.7,6.5c0,0,0,0,0,0
			C79.5,70.3,82.1,78.3,82.3,85.7z"/>
		<path class="st4" d="M54.5,71.2c0.6-1.2,1.7-2.3,3.1-3C56.3,68.9,55.2,70,54.5,71.2z"/>
		<path class="st4" d="M61.9,76.4c-1.3,0.5-3,0.7-4.9,0.4c-0.9-0.2-1.6-0.5-2.1-1c1,0.7,2.7,1.1,5.3,0.8
			C60.8,76.7,61.3,76.6,61.9,76.4L61.9,76.4z"/>
		<path d="M58.9,78.5c-3.3-0.1-5.2-1.4-5.9-3.2C53.8,77,55.7,78.3,58.9,78.5z"/>
		<path d="M66.7,70c0.5,2.7-1.7,6.2-4.6,7.7c-1,0.4-2,0.7-3.2,0.8c-3.3-0.2-5.1-1.5-5.9-3.2c0,0,0,0,0,0c-1.4-3.4,1.5-8.4,7.2-8.8
			c1,0,1.9,0.1,2.7,0.2C65,67.4,66.3,68.6,66.7,70z M65.7,71.6c0.3-2-0.9-4-4.6-4.1c-1.2-0.1-2.4,0.2-3.5,0.8
			c-1.4,0.7-2.5,1.8-3.1,3c-1,1.7-1.1,3.6,0.4,4.7c0.5,0.5,1.2,0.8,2.1,1c1.9,0.3,3.6,0.1,4.9-0.4C64.3,75.4,65.6,73.4,65.7,71.6z"
			/>
		<path class="st0" d="M55.1,9.9c-0.4-0.3-0.8-0.5-1.1-0.6c1.5,0.2,3,0.8,4.5,1.9C57.7,10.8,56.7,10.4,55.1,9.9z"/>
		<path d="M56,38.7c-0.4-0.4-0.8-0.8-1.2-1.1C55.1,37.9,55.6,38.3,56,38.7z"/>
		<path class="st0" d="M55.2,15.8c1.3,0.8,0.2,3.4-1.3,6C55.4,19.2,56.3,16.7,55.2,15.8z"/>
		<path class="st4" d="M54.9,75.9c-1.5-1.1-1.4-2.9-0.4-4.7C53.7,72.9,53.7,74.7,54.9,75.9z"/>
		<path class="st3" d="M50.1,49.1c4.8-2,9-0.6,12.3,2.6C59.2,48.6,54.9,47.2,50.1,49.1z"/>
		<path class="st1" d="M54.5,17c1.1,0.8-1.7,4.4-3.5,7.1C52.3,21.3,54.3,18.2,54.5,17z"/>
		<path class="st1" d="M53.1,16.9c1.1-0.7,1.5-0.6,1.3,0.1C54.2,16.8,53.8,16.8,53.1,16.9z"/>
		<path d="M55.4,58.7c-1.3,0.7-2.9,1.9-3.7,2.9C52.4,60.4,53.8,59.3,55.4,58.7z"/>
		<path d="M59.5,66.5c0.2,0,0.4,0,0.6,0c-5.7,0.4-8.6,5.4-7.2,8.8C51.5,71.9,54.5,66.9,59.5,66.5z"/>
		<path d="M53.4,36.3c0.2,0.2,0.3,0.3,0.5,0.5C53.7,36.6,53.5,36.4,53.4,36.3z"/>
		<path d="M56.3,60.3c-1.3,0.4-2.6,1.3-4,2.6C53.3,61.8,54.7,60.7,56.3,60.3z"/>
		<path class="st1" d="M52.8,93.6c1.2,4.4,2.4,8.6,3.3,12.6C54.5,103.3,53.6,98.3,52.8,93.6z"/>
		<path d="M52.1,32.6c4.7,3.2,9.3,7,13.9,10.3C61,39.5,55.8,35.7,52.1,32.6z"/>
		<path class="st5" d="M54.9,109c-1-2.2-1.6-5.7-2.2-9.4C53.3,103.3,53.9,106.8,54.9,109z"/>
		<path class="st1" d="M52.8,93.6c-0.9-3.1-1.7-6.3-2.6-9.5C51.4,86.4,52.1,89.9,52.8,93.6z"/>
		<path d="M52.2,32c3.8,2.2,8.7,5.9,13.5,9.6C61.3,38.4,56.7,35.2,52.2,32z"/>
		<path d="M52.3,43.6c0,0.6-0.3,0.6-0.8,0.1C51.8,43.8,52.1,43.8,52.3,43.6z"/>
		<path class="st1" d="M51.7,18c-0.1-0.2-0.2-0.3-0.3-0.5c0.7-0.3,1.3-0.5,1.7-0.6C52.8,17.2,52.3,17.5,51.7,18z"/>
		<path class="st0" d="M51.6,16.2c1.9-0.8,3-0.8,3.6-0.4C54.6,15.5,53.5,15.5,51.6,16.2z"/>
		<path class="st5" d="M52.7,99.5c-0.7-4.2-1.3-8.6-2.6-11.9C51.4,90.9,52.1,95.4,52.7,99.5z"/>
		<path d="M51.7,63.8c-0.1,0-0.1,0-0.1,0c0.3-0.3,0.5-0.6,0.8-0.9C52.1,63.2,51.9,63.5,51.7,63.8z"/>
		<path d="M53.4,36.3c-1.8-1.6-3.5-3.2-5.2-4.9c0,0,0,0,0,0C49.8,33,51.6,34.6,53.4,36.3z"/>
		<path class="st0" d="M51.6,16.2c-0.1-0.3-0.3-0.6-0.4-0.8C51.4,15.6,51.5,15.9,51.6,16.2z"/>
		<path d="M51.5,63.8c-0.1,0.2-0.3,0.3-0.4,0.5c-0.1-0.3-0.1-0.5-0.1-0.8C51.2,63.6,51.3,63.7,51.5,63.8z"/>
		<path d="M58.3,42.2c-2.9-2.5-5.9-5.6-8-8C52.4,36.7,55.5,39.8,58.3,42.2z"/>
		<path d="M51.1,63.5c-0.3-0.4,0-1.1,0.6-1.8C51.3,62.2,51.1,62.9,51.1,63.5z"/>
		<path class="st1" d="M50.9,16.8c0.2,0.2,0.3,0.5,0.5,0.7c-0.1,0-0.2,0.1-0.4,0.2C51,17.3,50.9,17,50.9,16.8z"/>
		<path class="st0" d="M52,28.3c-0.5-0.4-0.9-0.8-1.2-1.2C51.1,27.5,51.5,27.9,52,28.3z"/>
		<path class="st2" d="M48.6,48.9c1-0.5,2-0.9,3.2-1.2C50.7,48.1,49.7,48.4,48.6,48.9z"/>
		<path class="st0" d="M50.8,27.2c0.4-0.8,1.9-3,3.2-5.3C52.9,23.8,51.7,25.7,50.8,27.2z"/>
		<polygon points="50.5,19.5 50.5,19.5 50.5,19.5 		"/>
		<polygon points="50.5,19.5 50.5,19.5 50.5,19.5 		"/>
		<path d="M52.2,32c-0.7-0.4-1.3-0.7-1.9-1c-0.5-0.5-1-1-1.4-1.4C50,30.4,51.1,31.2,52.2,32z"/>
		<path d="M50.2,39.6c0.7,1.3,1.4,2.6,2.1,4C51.7,42.7,51,41.2,50.2,39.6z"/>
		<path d="M50.5,19.5c0,0.7-0.3,1.5-0.8,2.5C50.1,21.2,50.4,20.4,50.5,19.5z"/>
		<path d="M51.6,43.7c-0.9-0.4-1.9-2.2-2.8-4.3C49.8,41.3,50.9,43,51.6,43.7z"/>
		<path class="st1" d="M49.7,15.6c0.5-0.2,0.9,0,1.2,1.2C50.5,16.2,50.1,15.8,49.7,15.6z"/>
		<path class="st1" d="M49.5,26.5c0.2-0.5,0.8-1.4,1.5-2.5c-0.5,1.1-1,2-1.2,2.8C49.7,26.7,49.6,26.6,49.5,26.5z"/>
		<path class="st0" d="M49.2,14.6c0.7-0.1,1.4,0,2,0.8C50.7,14.9,49.9,14.5,49.2,14.6z"/>
		<path class="st1" d="M53.7,30.9c-1.4-1-2.7-2-4.1-2.9c0-0.3,0-0.7,0.1-1.1C50.9,28.2,52.2,29.6,53.7,30.9z"/>
		<path d="M50.5,19.5c-1.2,1.5-2.1,2.8-2.7,4C48.6,21.7,50,20,50.5,19.5z"/>
		<path class="st1" d="M48,16.7c0.5-1.3,1.1-1.5,1.7-1.2C49.2,15.8,48.6,16.4,48,16.7z"/>
		<path d="M52.1,32.6c-1.1-0.8-2.2-1.5-3.3-2.2c0.5,0.1,1,0.4,1.6,0.6C50.9,31.5,51.5,32,52.1,32.6z"/>
		<path class="st3" d="M54.7,82.8c-2.3-0.5-4.3-0.8-6.2-0.9C50.6,82,52.7,82.2,54.7,82.8z"/>
		<path d="M48.6,68.3c0.1,0.8,0,1.6-0.3,1.6C48.5,69.7,48.6,69,48.6,68.3z"/>
		<path d="M48.3,67c0.2,0.1,0.3,0.7,0.3,1.4C48.6,67.8,48.5,67.3,48.3,67z"/>
		<path d="M47.2,25.8c0.8-1.3,1.8-2.6,2.4-3.8C48.9,23.5,47.9,24.9,47.2,25.8z"/>
		<path d="M48.3,67c-0.2,0-0.4,0.2-0.7,0.8C47.8,66.7,48.1,66.6,48.3,67z"/>
		<path d="M50.2,34.1c-0.9-1-1.6-2-2.1-2.7c0,0,0,0,0,0C48.6,32.1,49.3,33.1,50.2,34.1z"/>
		<path d="M48.1,31.4C48.1,31.4,48.1,31.4,48.1,31.4L48.1,31.4z"/>
		<path class="st3" d="M50.1,49.1c-1.6,0.7-3.3,1.8-5.1,3.4c-0.1,0-0.3,0-0.4,0C46.5,50.8,48.3,49.7,50.1,49.1z"/>
		<path d="M48.4,69.9c-0.2,0.2-0.4,0.1-0.6-0.8C48,69.6,48.2,69.9,48.4,69.9z"/>
		<path class="st0" d="M49.2,14.6c-0.8,0.2-1.5,0.7-1.8,1.3C47.8,15,48.5,14.6,49.2,14.6z"/>
		<path class="st0" d="M45.5,10c2.7-0.6,5.5-2.1,8.5-0.8C51,8.8,48.1,9.7,45.5,10z"/>
		<path d="M46.8,33.8c1,1.8,2.2,3.7,3.4,5.8c0.8,1.6,1.5,3.1,2.1,4c-0.2,0.2-0.5,0.3-0.8,0.1c-0.7-0.7-1.8-2.4-2.8-4.3
			c-1-2.3-2-4.9-2.7-6.1c0-0.1-0.1-0.3-0.1-0.4C46.3,33.2,46.6,33.5,46.8,33.8z"/>
		<path class="st0" d="M46.1,14.7c0.4,0.2,0.9,0.5,1.2,1.2C47.1,15.5,46.7,15,46.1,14.7z"/>
		<path d="M50.2,39.6c-1.2-2.1-2.3-4-3.4-5.8C48,35.2,49.2,37.5,50.2,39.6z"/>
		<path class="st1" d="M48,16.7c0,0.1-0.1,0.1-0.1,0.2c-0.6,0.2-1,0.1-1.3-0.1C47.1,17.1,47.6,17,48,16.7z"/>
		<path d="M47.2,25.8c-0.1,0.1-0.2,0.3-0.2,0.4C47.1,26.1,47.1,26,47.2,25.8z"/>
		<path d="M47,26.2c0-0.8,0.3-1.8,0.8-2.7c0.6-1.1,1.5-2.5,2.7-4c0,0,0,0,0,0c0,0,0,0,0,0c-0.1,0.8-0.4,1.7-0.8,2.5
			c-0.7,1.2-1.6,2.5-2.4,3.8C47.1,26,47.1,26.1,47,26.2C47,26.2,47,26.2,47,26.2z"/>
		<path d="M47.8,23.5c-0.5,1-0.8,1.9-0.8,2.7C46.7,25.8,47,24.8,47.8,23.5z"/>
		<path d="M46.9,69.3c0.3,1.4,0,3-0.6,4.3C46.7,72.5,46.9,71.1,46.9,69.3z"/>
		<path d="M48.8,39.4c-1.2-2.2-2.3-4.7-2.7-6.1C46.8,34.6,47.7,37.1,48.8,39.4z"/>
		<path d="M46.6,19.9c0.1-0.1,0.2,0,0.2,0.2C46.7,20,46.7,19.9,46.6,19.9z"/>
		<path class="st1" d="M45.8,16.2c0.5,0,0.8,0.2,0.8,0.7C46.3,16.7,46,16.4,45.8,16.2z"/>
		<path class="st2" d="M51.8,47.7c-2.4-0.7-5-1.2-7.7-1.2C46.5,46.6,49.1,46.9,51.8,47.7z"/>
		<path class="st5" d="M46.3,69.3c0.2,1.3-0.2,2.8-0.8,3.9C45.8,72.4,46.1,71.2,46.3,69.3z"/>
		<path class="st6" d="M46.2,2.1c2.5,1.1,3.1,4.6,0.9,6.1c1.7-1.5,1.6-5-1.1-6.1C46.1,2.1,46.1,2.1,46.2,2.1z"/>
		<path d="M46.1,32.5c0.2,0.4,0.5,0.9,0.7,1.3c-0.3-0.3-0.5-0.6-0.8-0.8C46,32.7,46,32.6,46.1,32.5z"/>
		<path d="M46,33c0,0.1,0,0.2,0.1,0.4c-0.2-0.3-0.3-0.5-0.5-0.6C45.8,32.8,45.9,32.9,46,33z"/>
		<path class="st5" d="M46.3,69.3c-0.2,0.1-0.4,0.1-0.6,0.2C45.9,69.4,46.1,69.3,46.3,69.3z"/>
		<path d="M45.8,24.3c0.1-0.4,0.2-0.7,0.2-0.8c0.6-1.9,0.8-3,0.7-3.4C47,20.8,46.4,22.9,45.8,24.3z"/>
		<path class="st2" d="M48.6,48.9c-1.8,0.8-3.3,1.9-4.5,2.7C46,50.3,47.3,49.5,48.6,48.9z"/>
		<path d="M46.8,20.1c0,0.4-0.2,1.5-0.7,3.4c0,0.1-0.1,0.4-0.2,0.8c-0.3,0.7-0.6,1.2-0.8,1.4c-0.1-0.1-0.2-0.2-0.3-0.5
			c0.3-1.1,0.5-2.2,0.8-3.1c0,0,0,0,0,0c0.4-1.1,0.9-2,1.2-2.2C46.7,19.9,46.7,20,46.8,20.1z"/>
		<path class="st6" d="M44.9,8.8c0.9,0,1.6-0.3,2.2-0.6C46.6,8.6,45.8,8.9,44.9,8.8z"/>
		<path d="M45,25.7c0.2-0.2,0.5-0.7,0.8-1.4C45.6,25,45.3,25.9,45,25.7z"/>
		<path d="M45.4,22.1c0.2-0.8,0.4-1.4,0.5-1.9c0.3-0.3,0.5-0.3,0.7-0.3C46.3,20.1,45.8,21,45.4,22.1z"/>
		<path class="st0" d="M44.1,15c0.8-0.5,1.5-0.5,2-0.3C45.3,14.4,44.5,14.7,44.1,15z"/>
		<path class="st5" d="M45.5,73.2c-0.5,1.2-1.1,1.5-1.6,1.3C44.4,74.6,45,74,45.5,73.2z"/>
		<path d="M47.6,67.8c-1.3,0.6-2.5,0.8-3.5,0.8C45.4,68.5,46.6,68.1,47.6,67.8z"/>
		<path class="st5" d="M45,69.6c0.2,0,0.4-0.1,0.7-0.1C45.5,69.5,45.3,69.6,45,69.6z"/>
		<path class="st5" d="M44.7,83.4c0.3,9.7,0.8,19.1,1.2,27.4C45.4,100.8,44.9,92,44.7,83.4z"/>
		<path d="M45.4,22.1c-0.2,0.9-0.5,2-0.8,3.1C44.6,24.5,44.9,23.2,45.4,22.1z"/>
		<path class="st1" d="M45.8,16.2c-0.3,0-0.7,0-1.2,0C45.1,15.7,45.4,15.9,45.8,16.2z"/>
		<path class="st5" d="M44.7,83c2.6-0.4,4.3,1.6,5.5,4.7C49,84.8,47.3,82.9,44.7,83z"/>
		<path d="M44,76.1c0.9-0.1,1.8-1.2,2.4-2.5C45.8,75.6,44.9,76.3,44,76.1z"/>
		<path class="st5" d="M45.7,69.5c0.2,0,0.4-0.1,0.6-0.2c-0.2,1.8-0.5,3.1-0.8,3.9c-0.5,0.8-1,1.3-1.6,1.3c-0.4-0.2-0.9-0.7-1.2-1.3
			c-0.3-0.8-0.6-2.1-0.8-3.8c0.4,0.1,0.7,0.1,1,0.2c0.4,0.1,0.9,0.3,2.1,0.1C45.3,69.6,45.5,69.5,45.7,69.5
			C45.6,69.5,45.7,69.5,45.7,69.5z"/>
		<path d="M45,25.7c-0.2,0.1-0.3,0-0.3-0.5C44.8,25.4,44.9,25.6,45,25.7z"/>
		<path class="st5" d="M45.9,110.8c-0.4-8.3-1-17.8-1.2-27.4c0-0.1,0-0.3,0-0.4c2.7-0.1,4.3,1.8,5.5,4.7c0,0,0,0,0,0
			c1.2,3.3,1.9,7.7,2.6,11.9c0.6,3.7,1.1,7.2,2.2,9.4C51.8,109.5,48.9,110.3,45.9,110.8z"/>
		<path d="M44.4,34.9c0.4,1.6,0.5,3.2,0.5,4.5C44.8,37.7,44.4,35.8,44.4,34.9z"/>
		<path d="M44,33.5c0.2-0.2,0.4-0.1,0.5,1c-0.1,0.1-0.1,0.3-0.1,0.5C44.3,34.4,44.2,33.9,44,33.5z"/>
		<path class="st6" d="M44.9,8.8c-0.8,0-1.4-0.2-1.9-0.6C43.5,8.5,44.1,8.7,44.9,8.8z"/>
		<path d="M44.3,41.5c0.3,2.2,0.8,0.7,0.7-2.1c0.2,1.8,0.2,3.5-0.7,3.5C44.3,42.3,44.3,42,44.3,41.5z"/>
		<path class="st3" d="M44.6,52.4c-0.1,0.1-0.2,0.2-0.3,0.3c-0.4-0.2-0.8-0.5-1.3-0.8C43.4,52.2,44,52.3,44.6,52.4z"/>
		<path d="M44.1,38.3c0.1,1.9,0.1,2.6,0.1,3.2C44.2,40.8,44.1,39.8,44.1,38.3z"/>
		<path class="st6" d="M44.6,1.8c0.5,0,1,0.2,1.4,0.3c-1-0.2-1.8-0.2-2.4,0C43.9,1.9,44.3,1.8,44.6,1.8z"/>
		<path d="M43.7,34.1c0.1-0.3,0.1-0.6,0.2-0.8c0,0.1,0,0.1,0.1,0.2C43.9,33.6,43.8,33.8,43.7,34.1z"/>
		<path class="st6" d="M46,2.1c2.7,1.1,2.9,4.6,1.1,6.1c0,0,0,0,0,0c-0.5,0.4-1.3,0.6-2.2,0.6c0,0,0,0,0,0c-0.8-0.1-1.4-0.3-1.9-0.6
			c-0.9-0.7-1.5-1.9-1.5-3c0.1-1.3,0.9-2.5,2.1-3.1c0,0,0,0,0,0C44.2,1.9,45,1.9,46,2.1z"/>
		<path d="M43.5,35.3c-0.1-0.2,0-0.7,0.2-1.2C43.7,34.5,43.6,34.9,43.5,35.3z"/>
		<path class="st5" d="M42.9,69.6c0.9,0.1,1.6,0.1,2.1,0.1C43.8,69.8,43.3,69.7,42.9,69.6z"/>
		<path d="M45,39.4c0.1,2.8-0.5,4.3-0.7,2.1c0-0.6,0-1.3-0.1-3.2c0,0,0,0-0.1,0v0c-0.2,4.7-0.7,4.8-0.7,2.3c0.1-1.6,0.1-3.1,0.2-4.4
			c0-0.3,0.1-0.7,0.1-1c0,0,0,0,0,0c0-0.4,0.1-0.8,0.2-1.2c0.1-0.3,0.2-0.5,0.3-0.6c0.2,0.5,0.3,1,0.4,1.5
			C44.4,35.8,44.8,37.7,45,39.4C45,39.4,45,39.4,45,39.4z"/>
		<path d="M43.5,35.3C43.6,35.3,43.6,35.3,43.5,35.3c0,0.4,0,0.7-0.1,1C43.5,35.9,43.5,35.6,43.5,35.3z"/>
		<path class="st0" d="M45.5,10c-2.1,0.5-4.2,0.4-6.5-1.8C40.9,10.1,43.1,10.3,45.5,10z"/>
		<path class="st1" d="M57.2,46.7c-7.1-1.1-12.5-1.3-17.4-1.1C46.6,45.1,51.5,45.6,57.2,46.7z"/>
		<path class="st5" d="M43.4,83.5c0-0.2,0-0.3,0-0.5C43.5,83.2,43.4,83.3,43.4,83.5z"/>
		<path class="st5" d="M43.4,83.5c0,0.8,0,1.5,0,2.3C43.4,85,43.4,84.2,43.4,83.5z"/>
		<path d="M43.5,25.2c-0.3-1-0.5-1.9-0.6-2.8C43.3,23.7,43.6,25,43.5,25.2z"/>
		<path class="st5" d="M43.4,86.2c0-0.1,0-0.3,0-0.4C43.4,85.9,43.4,86.1,43.4,86.2z"/>
		<path class="st1" d="M43,16.2c0.6,0.1,1.2,0.1,1.7,0c-0.2,0.2-0.3,0.4-0.5,0.7C43.7,16.5,43.3,16.3,43,16.2z"/>
		<path d="M43.3,40.7c0-1,0-2.6,0.2-4.4C43.4,37.6,43.4,39.1,43.3,40.7z"/>
		<path d="M47.7,69.1c-0.3,0.1-0.5,0.1-0.8,0.2c-0.1,1.8-0.3,3.3-0.6,4.3c-0.6,1.3-1.5,2.4-2.4,2.5c-0.8-0.2-1.6-1-2.1-2.2
			c-0.3-1.1-0.6-2.6-0.7-4.6c-0.3-0.1-0.5-0.1-0.8-0.2c-0.3,0.6-0.6,0.8-0.7,0.7c-0.1-0.4-0.2-1-0.2-1.6c0.1-0.5,0.2-0.9,0.3-1.2
			c0.2-0.1,0.4,0.1,0.8,0.8c1.3,0.6,2.5,0.8,3.5,0.8c1,0,2.2-0.2,3.5-0.8c0.3-0.7,0.5-0.9,0.7-0.8c0.1,0.3,0.3,0.8,0.3,1.4
			c0,0.6-0.1,1.3-0.3,1.6C48.2,69.9,48,69.6,47.7,69.1z M45,69.6c-0.5,0.1-1.1,0.1-2.1-0.1c-0.3-0.1-0.6-0.2-1-0.2
			c-0.2,1.2,0.2,2.7,0.8,3.8c0.4,0.9,0.8,1.3,1.2,1.3c0.6,0.2,1.1-0.1,1.6-1.3c0.6-1.1,1-2.6,0.8-3.9c-0.2,0-0.4,0.1-0.6,0.2
			c0,0,0,0,0,0C45.4,69.5,45.2,69.6,45,69.6z"/>
		<path d="M43.3,25.5c0.1,0,0.2-0.1,0.3-0.2C43.5,25.4,43.4,25.5,43.3,25.5z"/>
		<path d="M43.3,40.7c0.1,2.5,0.6,2.4,0.7-2.3c-0.1,4.5-0.3,5.6-1,4.5C43.2,42,43.3,41.3,43.3,40.7z"/>
		<path d="M44,76.1c-0.8,0.1-1.6-0.5-2.1-2.2C42.4,75.1,43.2,75.9,44,76.1z"/>
		<path class="st5" d="M42.8,99.4c0.2-4.3,0.4-8.5,0.6-12.6C43.3,91.1,43.1,95.4,42.8,99.4z"/>
		<path d="M44.1,68.6c-1,0-2.2-0.1-3.5-0.8C41.6,68.1,42.7,68.5,44.1,68.6z"/>
		<path class="st1" d="M43,16.2c-0.1,0-0.2,0-0.3,0C42.8,16.2,42.9,16.2,43,16.2z"/>
		<path class="st5" d="M43.9,74.5c-0.4,0-0.9-0.4-1.2-1.3C43,73.9,43.4,74.4,43.9,74.5z"/>
		<path d="M42.3,24.5c0.3,0.6,0.7,1.1,0.9,1C42.8,25.7,42.6,25.2,42.3,24.5z"/>
		<path d="M41.7,22c-0.2-1.1-0.2-1.7-0.2-2c0-0.1,0-0.1,0.1-0.2c0.2-0.3,0.8,1.2,1.3,2.7c0.2,0.9,0.3,1.8,0.6,2.8
			c-0.1,0.1-0.2,0.2-0.3,0.2c-0.3,0-0.6-0.4-0.9-1C42.1,23.5,41.9,22.2,41.7,22z"/>
		<path class="st2" d="M42.3,50.4c0.6,0.4,1.2,0.8,1.8,1.2C43.5,51.3,42.9,50.9,42.3,50.4z"/>
		<path class="st6" d="M43,8.2c-1.2-0.7-1.6-1.9-1.5-3C41.5,6.3,42.1,7.5,43,8.2z"/>
		<path class="st5" d="M41.9,69.4c0.2,1.8,0.4,3,0.8,3.8C42.1,72.1,41.7,70.6,41.9,69.4z"/>
		<path class="st5" d="M42.8,99.4c-0.2,3.7-0.4,7.4-0.6,11.4C42.4,107.2,42.6,103.4,42.8,99.4z"/>
		<path class="st6" d="M43.6,2.1c-1.2,0.6-2,1.8-2.1,3.1C41.4,3.8,42.1,2.5,43.6,2.1z"/>
		<path d="M42,33c0.1-0.2,0.3-0.4,0.4-0.6c-0.2,0.4-0.3,0.9-0.5,1.4C42,33.5,42,33.2,42,33z"/>
		<path class="st1" d="M41.8,16.4c0.1-0.1,0.1-0.2,0.2-0.3c0.2,0.1,0.4,0.1,0.7,0.1C42.4,16.2,42.1,16.2,41.8,16.4z"/>
		<path d="M42,32.6c0,0.1,0,0.3,0,0.4c-0.1,0.2-0.3,0.4-0.5,0.7C41.8,33.3,41.9,32.9,42,32.6z"/>
		<path class="st5" d="M41.9,69.4c0.5,0,0.7,0.1,1,0.2C42.6,69.5,42.3,69.5,41.9,69.4z"/>
		<path class="st5" d="M42.3,110.8c-0.6-0.1-1.3-0.2-2-0.4C40.9,110.6,41.5,110.7,42.3,110.8z"/>
		<path class="st1" d="M40.6,16.9c0.4-0.1,0.8-0.4,1.2-0.6C41.2,17.4,41.1,17.4,40.6,16.9z"/>
		<path d="M42.9,22.5c-0.5-1.5-1.1-2.9-1.3-2.7c0,0,0-0.1,0.1-0.1C42.4,20.1,42.6,21.2,42.9,22.5z"/>
		<path d="M41.5,20c0,0.3,0,0.9,0.2,2c0.2,0.2,0.4,1.5,0.6,2.4C41.7,23.2,41.2,21.2,41.5,20z"/>
		<path d="M41.5,19.8c0,0.1,0,0.1-0.1,0.2C41.5,19.9,41.5,19.8,41.5,19.8z"/>
		<path d="M41.9,73.9c-0.6-1.3-1-3-0.7-4.6C41.3,71.3,41.6,72.8,41.9,73.9z"/>
		<path d="M41,25.8c0.1-0.2,0.1-0.5,0-0.9c0.2,0.5,0.4,1,0.4,1.3C41.2,26,41.1,25.9,41,25.8z"/>
		<path d="M41,25.8c0,0.1-0.1,0.1-0.2,0.2c0-0.2-0.2-0.5-0.4-0.9C40.6,25.3,40.8,25.5,41,25.8z"/>
		<path class="st2" d="M42.2,50.4c-1.6-1-3.1-1.8-4.6-2.3C39.5,48.8,41,49.6,42.2,50.4z"/>
		<path class="st0" d="M40.4,15.3c0.2,0.2,0.3,0.3,0.4,0.5C40.7,15.7,40.5,15.5,40.4,15.3z"/>
		<path class="st3" d="M35.8,82.5c4.4-0.3,8.1-1,12.8-0.6C44.4,81.7,40.2,82.3,35.8,82.5z"/>
		<path class="st1" d="M40.6,16.9c-0.3,0-0.6-0.1-0.9-0.7C40.1,16.5,40.4,16.8,40.6,16.9z"/>
		<path d="M40.6,67.8c-0.3-0.8-0.6-1-0.8-0.8C40,66.6,40.3,66.6,40.6,67.8z"/>
		<path d="M40.4,25c-0.7-1-1.4-1.9-1.9-2.8C39.1,23.2,39.9,24.2,40.4,25z"/>
		<path d="M40.4,69.1c-0.3,1.2-0.6,1.2-0.7,0.7C39.8,69.9,40.1,69.7,40.4,69.1z"/>
		<path d="M41.9,33.8c-0.4,1.7-1.8,4.3-3.1,6.6C40,38.1,41.1,35.8,41.9,33.8z"/>
		<path d="M39.4,32.3c0.3-0.3,0.6-0.5,0.9-0.8c-0.5,0.6-1,1.2-1.5,1.8C39,32.9,39.3,32.6,39.4,32.3C39.4,32.3,39.4,32.3,39.4,32.3z"
			/>
		<path d="M39.8,67c-0.1,0.3-0.2,0.7-0.3,1.2C39.5,67.6,39.6,67.1,39.8,67z"/>
		<path d="M39.5,68.2c0,0.6,0.1,1.2,0.2,1.6C39.5,69.6,39.4,68.9,39.5,68.2z"/>
		<path class="st1" d="M39.5,15.6c0.1,0.2,0.1,0.4,0.2,0.6c-0.3-0.2-0.7-0.5-1.2-0.7C38.8,15.5,39.1,15.5,39.5,15.6z"/>
		<path class="st3" d="M42.9,51.9c-1.5-0.6-3-1.7-4.4-2.5C40.1,50.2,41.6,51.1,42.9,51.9z"/>
		<path d="M39.8,31.5c-0.1,0.2-0.2,0.5-0.3,0.8c0,0,0,0,0,0c-0.5,0.4-1,0.9-1.6,1.3C38.6,32.9,39.2,32.2,39.8,31.5z"/>
		<path d="M35.9,32.2c1.1-0.8,2.1-1.6,3.1-2.4c-0.3,0.4-0.7,0.9-1.1,1.3C37.2,31.4,36.6,31.8,35.9,32.2z"/>
		<path d="M41,24.8c-0.5-1.2-1.5-2.9-2.6-4.5C39.2,21.5,40.6,23.6,41,24.8z"/>
		<path d="M41.6,33.6c-0.7,1.3-1.9,2.9-3,4.5C39.6,36.6,40.7,34.9,41.6,33.6z"/>
		<path class="st0" d="M40.4,15.3c-0.5-0.5-1.3-0.8-2.1-0.7C38.9,14.4,39.6,14.6,40.4,15.3z"/>
		<path d="M38.8,40.3c-0.7,1.3-1.5,2.6-2.3,3.8C37,43.4,37.9,41.9,38.8,40.3z"/>
		<path d="M36.5,44.2c-0.1-0.6-0.1-1.2,0-1.8c0.4-1.2,1.2-2.7,2.1-4.2c1.1-1.6,2.3-3.2,3-4.5c0.2-0.2,0.3-0.5,0.5-0.7
			c0,0.2-0.1,0.5-0.1,0.8c-0.8,2-1.9,4.3-3.1,6.6C37.9,41.9,37,43.4,36.5,44.2z"/>
		<path class="st1" d="M38.3,15.3c0.1,0,0.2,0.1,0.2,0.1c-0.1,0-0.2,0-0.3,0C38.2,15.5,38.2,15.4,38.3,15.3z"/>
		<path class="st1" d="M38.2,28.3c-0.7,1.7-3.4,3.3-9.2,7.1C32.2,33,35.3,30.6,38.2,28.3z"/>
		<path d="M37.8,19.5c0.2,0.3,0.4,0.6,0.6,0.8C38.1,19.9,37.9,19.6,37.8,19.5z"/>
		<path d="M38.5,22.2c-0.6-1-0.8-2-0.7-2.7c0.1,0.2,0.3,0.4,0.6,0.8c1.1,1.6,2.1,3.3,2.6,4.5c0,0,0,0,0,0c0.1,0.4,0.1,0.7,0,0.9
			c-0.2-0.2-0.4-0.5-0.6-0.8C39.9,24.2,39.1,23.2,38.5,22.2z"/>
		<path d="M37.8,19.5c-0.1,0.7,0.2,1.6,0.7,2.7C38,21.2,37.6,20.3,37.8,19.5z"/>
		<path class="st2" d="M44.1,46.6c2.8,0,5.3,0.5,7.7,1.2c-1.1,0.3-2.2,0.7-3.2,1.2c0,0,0,0,0,0c-1.3,0.6-2.7,1.4-4.5,2.7
			c0,0-0.1,0-0.1,0.1c-0.6-0.5-1.2-0.9-1.8-1.2c0,0,0,0,0,0c-1.3-0.8-2.8-1.6-4.6-2.3c0,0-0.1,0-0.1,0c-0.4-0.1-0.8-0.3-1.2-0.4
			C38.7,47,41.3,46.6,44.1,46.6z"/>
		<path class="st5" d="M40.3,110.4c-1.3-0.3-2.8-0.6-4.4-1c0,0,0,0,0,0c-0.9-0.2-1.7-0.4-2.5-0.5c2.1-8.3,3.8-16.7,5.7-25
			c1.5-0.3,3-0.6,4.5-1c0,0.2,0,0.3,0,0.5c0,0.8,0,1.5,0,2.3c0,0.2,0,0.3,0,0.4c0,0.2,0,0.4,0,0.6c-0.1,4.1-0.3,8.3-0.6,12.6
			c0,0,0,0,0,0c-0.2,3.9-0.4,7.7-0.6,11.4C41.5,110.7,40.9,110.6,40.3,110.4z"/>
		<path class="st1" d="M37.3,16.8c0.1-0.6,0.3-1.1,0.9-1.3C37.8,16.1,37.5,16.5,37.3,16.8z"/>
		<path class="st2" d="M37.6,48.1c-0.4-0.1-0.8-0.3-1.2-0.4C36.8,47.9,37.2,48,37.6,48.1z"/>
		<path class="st0" d="M39,8.2c-1.2,0.4-2.6,0.7-4,1.1C36.2,8.9,37.6,8.6,39,8.2z"/>
		<path d="M37,63.6c0.1-0.6,0-1.2-0.4-1.8C37.2,62.5,37.4,63.2,37,63.6z"/>
		<path class="st0" d="M36.7,16c0.4-0.9,1-1.3,1.6-1.4C37.5,14.8,36.9,15.4,36.7,16z"/>
		<path d="M37,63.6c0,0.2-0.1,0.4-0.2,0.6c0-0.1-0.1-0.2-0.1-0.3C36.8,63.8,36.9,63.7,37,63.6z"/>
		<path d="M39.6,30.2c-1.1,0.8-2.2,1.6-3.3,2.4c0.6-0.5,1.1-1,1.6-1.5C38.5,30.7,39.1,30.5,39.6,30.2z"/>
		<path d="M38.6,38.1c-0.9,1.5-1.8,3.1-2.1,4.2C36.8,41,37.6,39.6,38.6,38.1z"/>
		<path class="st0" d="M36.7,16c0,0.1-0.1,0.2-0.1,0.2C36.6,16.1,36.6,16.1,36.7,16z"/>
		<path d="M36.6,63.9c-0.3-0.6-0.9-1.3-1.6-1.9C35.6,62.5,36.2,63.1,36.6,63.9C36.6,63.9,36.6,63.9,36.6,63.9z"/>
		<path class="st2" d="M36.4,47.7c2.7-0.9,5.3-1.2,7.7-1.2C41.3,46.6,38.7,47,36.4,47.7z"/>
		<path d="M36.5,44.2c-0.3-0.4-0.2-1,0-1.8C36.3,43,36.3,43.6,36.5,44.2z"/>
		<path class="st5" d="M40.3,110.4c-1.7-0.3-3.1-0.7-4.4-1C37.5,109.8,39,110.2,40.3,110.4z"/>
		<path class="st1" d="M37.2,17.2c-0.4,1.1-1.1,0.4-1.8-0.2c1.5,0.3,0.8,1.4,1.8-0.2C37.3,16.9,37.2,17.1,37.2,17.2z"/>
		<path class="st1" d="M39.9,45.6c-2.5,0.2-5.3,0.5-8.5,1C34.2,46.1,37,45.8,39.9,45.6z"/>
		<path class="st1" d="M38.2,28.3c0.7-1.7-0.6-3.6-3-8.1c1.6,2.5,3.8,5.5,3.1,7.9C38.3,28.2,38.3,28.2,38.2,28.3z"/>
		<path class="st3" d="M38.5,49.5c-1.6-0.7-3.3-1.2-5.2-1.1C35.3,48,36.9,48.6,38.5,49.5z"/>
		<path d="M32.6,58.6c1.9,0.6,3.4,1.9,4.1,3.1C35.8,60.6,34,59.3,32.6,58.6z"/>
		<path class="st5" d="M35.8,109.5c-0.8-0.2-1.7-0.4-2.5-0.5C34.1,109.1,35,109.3,35.8,109.5z"/>
		<path class="st1" d="M33.6,17c0.5-1.1,1.2-0.6,1.8,0C35,16.9,34.5,16.9,33.6,17z"/>
		<path class="st0" d="M33.8,21.6c1.2,2.4,2.6,4.7,2.9,5.5C35.8,25.7,34.7,23.6,33.8,21.6z"/>
		<path d="M34.8,76c-0.9,1.4-2.7,2.3-5.5,2.4C32.1,78.3,33.8,77.3,34.8,76z"/>
		<path class="st1" d="M33.6,17c0.6,1.2,1.1,2.2,1.6,3.2C34.5,19,33.8,17.9,33.6,17z"/>
		<path class="st0" d="M36.5,16.2c-1.7-0.6-2.7-0.8-3.4-0.5C33.8,15.4,34.8,15.5,36.5,16.2z"/>
		<path d="M29.7,40.7c2.7-2.4,5.8-4.8,8.2-7.1c0.6-0.5,1.1-0.9,1.6-1.3c-0.2,0.3-0.4,0.7-0.6,1c-2.6,2.8-5.7,5.7-8.9,8.6
			c-2.2,2-4.3,3.8-5.5,5.2c0.2-0.6,0.6-1.2,1-1.7c0,0,0,0,0,0C26.3,44,27.9,42.4,29.7,40.7z"/>
		<path class="st3" d="M33,48.4c-0.1,0-0.3,0-0.4,0c0.2,0,0.5,0,0.7-0.1C33.2,48.4,33.1,48.4,33,48.4z"/>
		<path d="M21.3,42.1c4.9-3.7,10.4-7.5,14.5-10C31.3,35.6,26,38.9,21.3,42.1z"/>
		<path class="st4" d="M34.2,72.5c0.5,1.8-0.2,3.5-2.7,4c0.6-0.2,1.2-0.5,1.9-0.9C34.3,74.7,34.5,73.6,34.2,72.5z"/>
		<path class="st0" d="M32.8,30.5c1.6-1.2,2.9-2.3,3.9-3.3C36.1,27.9,34.7,29.1,32.8,30.5z"/>
		<path d="M29.9,41.9c3.2-2.9,6.4-5.8,8.9-8.6C37,35.8,33.2,39,29.9,41.9z"/>
		<path class="st4" d="M32.5,69.7c0.9,0.9,1.5,1.9,1.7,2.9C34,71.6,33.4,70.5,32.5,69.7z"/>
		<path class="st0" d="M33.8,21.6c-1.3-2.7-2.3-5.4-0.7-5.9C31.9,16.4,32.6,18.9,33.8,21.6z"/>
		<path d="M30.4,58.2c0.4-0.2,1.3,0,2.2,0.4C31.9,58.4,31.1,58.3,30.4,58.2z"/>
		<path d="M28.9,60.4c2.2-0.7,4.4,0.3,6,1.6C33.1,60.7,30.8,60.4,28.9,60.4z"/>
		<path class="st3" d="M32.6,48.4c-0.4,0-0.8,0.1-1.2,0.2c-1,0.1-1.9,0.3-2.9,0.8l0,0C29.7,48.8,31.1,48.4,32.6,48.4z"/>
		<path d="M37.9,33.6c-2.4,2.3-5.5,4.7-8.2,7.1C32.3,38.3,35.3,35.7,37.9,33.6z"/>
		<path d="M34.9,62c-1.6-1.4-3.8-2.4-6-1.6c-1.2,0-2.2,0.1-2.7,0.1c0-0.1,0.1-0.3,0.2-0.4c0.6-0.3,1.9-0.9,3.9-1.8
			c0.8,0,1.5,0.2,2.2,0.4c1.5,0.7,3.2,2,4.1,3.1c0.4,0.6,0.5,1.3,0.4,1.8c-0.1,0.1-0.2,0.2-0.4,0.3C36.2,63.1,35.6,62.5,34.9,62
			C34.9,62,34.9,62,34.9,62z"/>
		<path class="st0" d="M34.9,9.4c-2.1,0.6-4.1,1.4-5.8,2.1C31,10.5,33,9.9,34.9,9.4z"/>
		<path class="st4" d="M27,67.4c2.1-0.2,4.1,0.8,5.5,2.2C31.1,68.3,29.1,67.3,27,67.4z"/>
		<path d="M29.9,41.9c-1.9,1.7-3.7,3.5-5.5,5.2C25.6,45.7,27.6,43.8,29.9,41.9z"/>
		<path d="M26.4,60c0.6-0.9,2.1-2,3.9-1.8C28.3,59.1,27.1,59.7,26.4,60z"/>
		<path class="st1" d="M28.5,86.9c-0.3-0.1-0.6-0.2-0.8-0.2c1.1,0.1,1.5-0.5,0.8-1.5C29.5,86,29.7,86.4,28.5,86.9z"/>
		<path class="st0" d="M29.1,11.5c-0.5,0.3-1,0.6-1.5,1c0-0.1,0-0.2,0.1-0.3C28.1,11.9,28.6,11.7,29.1,11.5z"/>
		<path class="st1" d="M31.4,46.6C25,47.7,18,49.5,7.6,51.5C17.6,49.1,25.2,47.6,31.4,46.6z"/>
		<path class="st1" d="M28.5,85.2c-0.9-0.7-2.5-1.5-4.2-2.9C26.6,83.5,27.9,84.5,28.5,85.2z"/>
		<path d="M34.8,76c2.3-3.5-1.2-9.5-7.3-9.6c0,0,0,0,0,0C33.5,66.2,37.3,72.4,34.8,76z"/>
		<path class="st0" d="M27.3,12.6c0.1-0.1,0.2-0.1,0.2-0.2c0,0.2-0.1,0.5-0.2,0.7C27.4,12.9,27.4,12.8,27.3,12.6z"/>
		<path d="M27.3,61.3c-0.9,0.1-1.2-0.3-1-0.9c0.5,0,1.5-0.1,2.7-0.1C28.4,60.6,27.8,60.9,27.3,61.3z"/>
		<path class="st0" d="M27.4,13.1c0,1.3-0.9,2.8-2,4.3C26.2,16.1,26.9,14.6,27.4,13.1z"/>
		<path d="M29.2,78.5c-1.1,0.1-2.2-0.2-3.3-0.8C26.9,78.1,28,78.3,29.2,78.5z"/>
		<path class="st3" d="M35.8,82.5c-1.7,0.1-3.5,0.2-5.5,0.2c-2.1,0-3.9-0.4-5.4-1.2c0.5,0.2,1.1,0.4,1.7,0.5
			C29.7,82.6,32.8,82.7,35.8,82.5z"/>
		<path d="M27.4,66.5c-1.1,0.1-2.1,0.3-2.9,0.5c0.4-0.2,0.9-0.3,1.4-0.4C26.5,66.5,27,66.4,27.4,66.5z"/>
		<path class="st2" d="M26.3,49.6c-0.3,0.1-0.4,0.1-0.5,0.1C26,49.7,26.1,49.7,26.3,49.6z"/>
		<path class="st0" d="M26.7,27.7c-1,0.6-2.2,1-3.4,1C24.4,28.6,25.5,28.3,26.7,27.7z"/>
		<path d="M25.3,45.4c1.1-1.6,2.6-3.2,4.3-4.7C27.9,42.4,26.3,44,25.3,45.4z"/>
		<path class="st3" d="M62.1,77.7c3.6-1.5,5.5-5,4.6-7.7c-0.3-1.5-1.4-2.8-3.8-3.3c-0.1,0-0.3-0.1-0.5-0.1c-0.8-0.1-1.6-0.1-2.3-0.1
			c-0.2,0-0.4,0-0.6,0c-5.1,0.4-8.1,5.4-6.5,8.8c0,0,0,0,0,0c0.7,1.7,2.6,3.1,5.9,3.2C60,78.5,61.1,78.2,62.1,77.7z M29.2,78.4
			c2.9-0.1,4.6-1,5.5-2.4c2.5-3.6-1.3-9.8-7.3-9.6c0,0,0,0,0,0c0,0,0,0,0,0c-0.5,0-1,0-1.5,0.1c-0.5,0.1-1,0.2-1.4,0.4c0,0,0,0,0,0
			c-2.7,0.9-3.6,2.7-3.3,4.6c0,2.3,1.7,4.8,4.7,6.1C27,78.2,28.2,78.6,29.2,78.4C29.2,78.4,29.2,78.4,29.2,78.4z M36.6,61.8
			c-0.7-1.2-2.2-2.5-4.1-3.1c-0.9-0.5-1.8-0.7-2.2-0.4C28.5,58,27,59.1,26.4,60c-0.7,0.3-0.6,0.4-0.2,0.4c-0.2,0.6,0.1,1,1,0.9
			c0.5-0.4,1.1-0.8,1.7-0.9c1.9,0,4.2,0.3,6,1.6c0,0,0,0,0,0c0.7,0.6,1.3,1.3,1.6,1.9c0,0,0,0,0.1,0c0.1,0.1,0.1,0.2,0.1,0.3
			c0.1-0.2,0.2-0.4,0.2-0.6C37.4,63.2,37.2,62.5,36.6,61.8z M54.7,82.8c-2.1-0.6-4.1-0.9-6.2-0.9c-4.6-0.3-8.4,0.3-12.8,0.6
			c-3,0.1-6,0.1-9.3-0.5c-0.6-0.1-1.2-0.3-1.7-0.5c-1.4-0.8-2.6-1.9-3.5-3.3c-2.2-3.8-2.6-9.7-1.5-15.3c1.3-6,4.5-11.5,8.6-13.5
			c0.9-0.4,1.9-0.7,2.9-0.8c0.4-0.1,0.8-0.2,1.2-0.2c0.1,0,0.3,0,0.4,0c0.1,0,0.2,0,0.2-0.1c1.9-0.1,3.6,0.4,5.2,1.1
			c1.5,0.8,2.9,1.9,4.4,2.5c0.4,0.3,0.9,0.5,1.3,0.8c0.1-0.1,0.2-0.2,0.3-0.3c0.1,0,0.3,0,0.4,0c1.7-1.6,3.4-2.7,5.1-3.4
			c4.9-1.8,9.1-0.4,12.3,2.6c0,0,0,0,0,0c3.8,3.7,6.3,9.8,6.7,15.6c0,0,0,0,0,0c0.4,6.3-1.8,12.3-7.2,14.6
			C59.9,82.8,57.6,83.1,54.7,82.8z M47.7,69.1c0.2,0.9,0.5,1.1,0.6,0.8c0.3,0.1,0.4-0.7,0.3-1.6c0-0.7-0.1-1.3-0.3-1.4
			c-0.2-0.4-0.5-0.3-0.7,0.8c-1,0.3-2.2,0.7-3.5,0.8c-1.4,0-2.5-0.4-3.5-0.8c-0.3-1.2-0.5-1.3-0.8-0.8c-0.2,0.1-0.3,0.6-0.3,1.2
			c-0.1,0.7,0,1.5,0.2,1.6c0.2,0.5,0.4,0.5,0.7-0.7c0.3,0.1,0.5,0.1,0.8,0.2c-0.3,1.6,0,3.3,0.7,4.6c0.5,1.7,1.3,2.3,2.1,2.2
			c0.9,0.2,1.8-0.4,2.4-2.5c0.6-1.3,0.9-3,0.6-4.3C47.2,69.2,47.5,69.1,47.7,69.1z M51.1,64.3c0.1-0.2,0.3-0.3,0.4-0.5
			c0,0,0.1,0,0.1,0c0.2-0.3,0.4-0.6,0.7-0.9c1.3-1.4,2.7-2.3,4-2.6c1-0.3,2-0.3,3,0.1c0.5,0.2,1,0.5,1.5,0.9c0,0,0,0,0,0l0,0
			c0,0,0,0,0,0c0.7,0.2,1.1,0,1.1-0.4c0.6-0.5,0-1.1-1-1.7c-0.6-0.5-1.4-0.9-2.3-0.9c-0.4-0.1-0.7-0.1-0.9,0c-0.5-0.3-1.4,0-2.4,0.5
			c0,0,0,0,0,0c-1.6,0.6-3,1.7-3.7,2.9c-0.6,0.7-0.9,1.4-0.6,1.8C51.1,63.7,51.1,64,51.1,64.3z"/>
		<path d="M26.2,60.5c-0.4,0-0.5-0.1,0.2-0.4C26.3,60.2,26.3,60.3,26.2,60.5z"/>
		<path class="st4" d="M33.4,75.6c-0.6,0.4-1.3,0.7-1.9,0.9c-0.9,0.2-2.1,0.3-3.5,0.1c-1.6,0.1-3.2-0.9-4.3-2.3c0,0,0,0,0,0
			c-1.5-2.1-1.7-4.9,0.5-6.2c0.7-0.4,1.6-0.6,2.8-0.8c2-0.1,4.1,0.9,5.5,2.2c0,0,0,0,0,0c0.8,0.9,1.5,1.9,1.7,2.9
			C34.5,73.6,34.3,74.7,33.4,75.6z"/>
		<path class="st1" d="M22.5,7.1c2.8,1.3,3.7,2.8,3.7,4.5C25.8,10.2,24.7,8.8,22.5,7.1z"/>
		<path d="M25.9,77.6c-2.3-1.3-4.3-3.8-4.7-6.1c0-1.9,1-3.7,3.3-4.6c0,0,0,0,0,0c0.8-0.3,1.8-0.4,2.9-0.5c0,0,0,0,0,0
			c6.1,0.1,9.6,6.1,7.3,9.6c-0.9,1.3-2.7,2.3-5.5,2.4c0,0,0,0,0,0.1C28,78.3,26.9,78.1,25.9,77.6z M31.5,76.6c2.5-0.6,3.2-2.3,2.7-4
			c-0.2-1-0.9-2-1.7-2.9c0,0,0,0,0,0c-1.4-1.4-3.4-2.4-5.5-2.2c-1.2,0.1-2.1,0.3-2.8,0.8c-2.6,1.4-2.1,4.2-0.5,6.2c0,0,0,0,0,0
			C25.2,76.4,28.1,77.8,31.5,76.6z"/>
		<path class="st1" d="M27.6,86.7c-0.9-0.1-2.3-0.6-3.8-1.8C24.9,85.6,26.2,86.2,27.6,86.7z"/>
		<path class="st2" d="M23.1,50.3c2.1-0.4,2.5-0.5,2.7-0.5C24.6,50,23.7,50.1,23.1,50.3z"/>
		<path d="M25.9,77.6c-3-1.3-4.6-3.8-4.7-6.1C21.6,73.9,23.6,76.4,25.9,77.6z"/>
		<path class="st3" d="M24.8,81.5c-1.4-0.7-2.6-1.8-3.5-3.3C22.2,79.5,23.4,80.7,24.8,81.5z"/>
		<path d="M25.3,45.4c-0.4,0.6-0.7,1.2-1,1.7C24.5,46.6,24.9,46,25.3,45.4z"/>
		<path class="st4" d="M27,67.4c-1.2,0.1-2.1,0.4-2.8,0.8C24.9,67.8,25.8,67.5,27,67.4z"/>
		<path class="st4" d="M31.5,76.6c-3.4,1.3-6.3-0.1-7.8-2.2c1.1,1.4,2.8,2.4,4.3,2.3C29.5,76.8,30.6,76.8,31.5,76.6z"/>
		<path d="M36.3,32.6C33,35.5,28,38.7,23,42C27.3,38.9,31.8,35.7,36.3,32.6z"/>
		<path class="st0" d="M26.7,27.7c-3-1-4.1-2.3-4.3-3.6C22.7,25.3,23.9,26.6,26.7,27.7z"/>
		<path class="st1" d="M26.2,11.6c0.8,2.9-1.8,5.3-3.6,7.8C24,16.7,26.1,14,26.2,11.6z"/>
		<path class="st1" d="M23.8,84.9c-4.1-2.8-5.6-7.4-6-12.3C18.7,79,21.4,82.9,23.8,84.9z"/>
		<path class="st4" d="M23.7,74.4c-1.6-2-2.1-4.8,0.5-6.2C22,69.5,22.1,72.3,23.7,74.4z"/>
		<path d="M21.3,71.5c-0.3-1.9,0.5-3.7,3.3-4.6C22.3,67.9,21.2,69.6,21.3,71.5z"/>
		<path class="st1" d="M22.5,7.1c1.9,1.9,1.3,3.9,0,5.9C23.4,11.2,23.8,9.2,22.5,7.1z"/>
		<path class="st0" d="M22.4,24c-0.5-2.1,1.4-4.4,2.9-6.6C23.8,19.9,22.2,22.1,22.4,24z"/>
		<path class="st2" d="M20.5,50.8c0.8-0.2,0,0,2.6-0.5C22.4,50.4,21.6,50.6,20.5,50.8z"/>
		<path class="st1" d="M22.6,27c-2.6-3-1.7-5.3,0-7.6C21.3,21.9,20.6,24.5,22.6,27z"/>
		<path class="st2" d="M20.6,56.7C20.6,56.7,20.6,56.7,20.6,56.7c-0.1-0.5,0-1,0-1.4c0.1-0.6,0.3-1.3,0.1-2.6c0-0.8-0.1-1.4-0.3-1.9
			c1.1-0.2,1.9-0.4,2.6-0.5c0,0,0,0,0,0c0.7-0.1,1.5-0.3,2.7-0.5h0c0.1,0,0.2,0,0.5-0.1c0,0,0,0.1,0,0.1
			C23.8,51.5,21.9,53.8,20.6,56.7z"/>
		<path class="st2" d="M20.5,50.8c0.2,0.4,0.3,1.1,0.3,1.9C20.7,52.1,20.6,51.5,20.5,50.8z"/>
		<path class="st2" d="M20.6,55.3c0.1-1,0.1-1.9,0.1-2.6C20.9,54,20.7,54.7,20.6,55.3z"/>
		<path class="st2" d="M20.6,55.3c0,0.4-0.1,0.9-0.1,1.4C20.5,56.1,20.5,55.7,20.6,55.3z"/>
		<path class="st3" d="M28.5,49.4c-4.1,2-7.3,7.5-8.6,13.5C21.1,57,24,51.6,28.5,49.4L28.5,49.4z"/>
		<path class="st3" d="M19.9,62.9c-1.1,5.6-0.7,11.5,1.5,15.3C18.9,74.2,18.6,68.4,19.9,62.9z"/>
		<path d="M23,42c-3.8,2.7-7.4,5.3-10.8,7.8C15.2,47.3,19.1,44.6,23,42z"/>
		<path class="st1" d="M22.6,27c-4.5-1.5-5.9-3.2-5.6-5.1C17,23.7,18.4,25.4,22.6,27z"/>
		<path class="st1" d="M37.9,84.1c-2.1,8.1-4.4,16.1-6.4,24.2c-5.7,0.7-10.4,0-14.1-1.7c0,0,0,0,0,0c-5.9-2.7-9.5-8-10.9-14.3
			C5,84.9,6.5,76.1,10.2,68.5c0,0,0,0,0,0c2.1-4,4.8-7.8,8.3-11c-1.2,6.2-1.3,11.1-0.7,15.1c0.4,4.9,1.9,9.5,6,12.3
			c1.5,1.2,2.8,1.7,3.8,1.8c0.3,0.1,0.5,0.2,0.8,0.2c1.3-0.5,1-1,0-1.7c-0.6-0.8-1.9-1.8-4.2-2.9C28.7,84.1,33.3,84.5,37.9,84.1z"/>
		<path class="st0" d="M18,51.3c0.2,0.8,0.2,1.5,0.1,2.2C18.2,52.8,18.1,52.1,18,51.3z"/>
		<path d="M37.8,31.1c-0.5,0.5-1,1-1.6,1.5c-4.5,3.1-8.9,6.4-13.3,9.5c-3.9,2.6-7.8,5.3-10.8,7.8c2.1-2.1,5.5-4.9,9.2-7.7
			c4.7-3.3,10-6.5,14.5-10C36.6,31.8,37.2,31.4,37.8,31.1z"/>
		<path class="st0" d="M17.5,26.7c1.6,1.4,3.8,2.1,5.8,2C21,28.9,19,28.1,17.5,26.7z"/>
		<path class="st0" d="M12.2,45.1c6.4-4.8,15.3-10.6,20.6-14.6C27.1,34.9,18.5,40.5,12.2,45.1z"/>
		<path class="st1" d="M31.5,108.3c-5.7,0.7-10.3,0-14.1-1.7C21.2,108.3,25.8,109,31.5,108.3z"/>
		<path class="st1" d="M17.8,72.6c-0.6-4-0.5-9,0.7-15.1C18.3,61.8,17.4,67.4,17.8,72.6z"/>
		<path class="st1" d="M22.6,27c-4.2-1.6-5.6-3.3-5.6-5.1c0.3-2.7,3.8-5.7,5.5-8.9c1.4-2,1.9-4.1,0-5.9c2.2,1.7,3.3,3.1,3.7,4.5
			c-0.1,2.4-2.2,5.1-3.6,7.8C20.9,21.7,20,24,22.6,27z"/>
		<path class="st1" d="M17,21.9c-0.1-2.9,3.5-5.9,5.5-8.9C20.8,16.3,17.3,19.2,17,21.9z"/>
		<path class="st0" d="M18.1,53.4c-0.4,3.2-3.3,5-5.9,7C14.8,58.1,17.6,56.2,18.1,53.4z"/>
		<path class="st1" d="M41.5,20c-0.3,1.2,0.2,3.2,0.9,4.5c0.2,0.7,0.5,1.3,0.9,1c0.1,0,0.2-0.1,0.3-0.2c0.1-0.3-0.2-1.5-0.6-2.8
			c-0.2-1.3-0.5-2.4-1.3-2.8c0,0,0,0.1-0.1,0.1C41.5,19.8,41.5,19.9,41.5,20z M37.8,19.5c-0.2,0.8,0.2,1.7,0.7,2.7
			c0.5,0.9,1.1,1.9,1.9,2.8c0.2,0.4,0.4,0.7,0.4,0.9c0.1,0,0.1-0.1,0.2-0.2c0.1,0.1,0.2,0.3,0.4,0.4c0-0.3-0.1-0.8-0.4-1.3
			c0,0,0,0,0,0c-0.4-1.3-1.8-3.3-2.6-4.5C38.2,20,38,19.8,37.8,19.5z M38.6,38.1c-1,1.4-1.8,2.9-2.1,4.2c-0.2,0.8-0.3,1.4,0,1.8
			c0.8-1.2,1.6-2.5,2.3-3.8c1.3-2.2,2.7-4.8,3.1-6.6c0.2-0.5,0.4-1,0.5-1.4c-0.1,0.2-0.3,0.4-0.4,0.6c0-0.1,0-0.3,0-0.4
			c-0.1,0.3-0.2,0.7-0.4,1.1C40.7,34.9,39.6,36.6,38.6,38.1z M39.6,30.2c-0.5,0.2-1.1,0.5-1.8,0.9c0.4-0.5,0.8-0.9,1.1-1.3
			c-1,0.8-2,1.6-3.1,2.4c-4.2,2.4-9.7,6.2-14.5,10c-3.7,2.6-7,5.1-9.2,7.7c3.4-2.5,7.1-5.1,10.8-7.8c5-3.3,10-6.6,13.3-9.5
			C37.4,31.8,38.5,31,39.6,30.2z M65.7,41.6c-4.8-3.7-9.7-7.5-13.5-9.6c-1.1-0.8-2.2-1.6-3.3-2.4c0.4,0.4,0.9,0.9,1.4,1.4
			c-0.6-0.3-1.1-0.5-1.6-0.6c1.1,0.7,2.2,1.4,3.3,2.2c0,0,0,0,0,0c3.6,3.1,8.8,6.9,13.9,10.3c3.6,2.6,7.1,5,10.5,6.6
			C73.2,46.9,69.5,44.3,65.7,41.6z M37.9,33.6c-2.5,2.1-5.6,4.7-8.2,7.1c-1.7,1.5-3.3,3.1-4.3,4.7c0,0,0,0,0,0
			c-0.4,0.6-0.8,1.2-1,1.7c1.8-1.8,3.7-3.5,5.5-5.2c3.3-2.9,7.1-6.1,8.9-8.6c0.5-0.6,1.1-1.2,1.5-1.8c-0.3,0.3-0.6,0.5-0.9,0.8
			c0.1-0.3,0.3-0.5,0.3-0.8C39.2,32.2,38.6,32.9,37.9,33.6z M58.3,42.2c2.5,2.2,4.7,3.9,6.1,4.4c-2.2-2.2-4.8-4.6-7.6-7.2
			c-0.1-0.1-0.2-0.2-0.3-0.2c-0.1-0.1-0.3-0.3-0.4-0.4c0,0-0.1-0.1-0.1-0.1c-0.4-0.4-0.8-0.8-1.2-1.1c-0.3-0.3-0.6-0.5-0.9-0.8
			c-0.2-0.2-0.3-0.3-0.5-0.5c-1.8-1.7-3.6-3.3-5.2-4.9l0,0c0,0,0,0,0,0c0,0,0,0,0,0c0,0,0,0,0,0c0.5,0.7,1.2,1.7,2.1,2.7
			c0,0,0.1,0.1,0.1,0.1C52.4,36.6,55.4,39.7,58.3,42.2z M50.2,39.6c-1-2.1-2.2-4.4-3.4-5.8c-0.3-0.4-0.5-0.9-0.7-1.3
			C46,32.6,46,32.7,46,33c-0.1-0.1-0.3-0.2-0.4-0.3c0.1,0.1,0.3,0.3,0.5,0.6c0.3,1.3,1.4,3.8,2.7,6.1c0.9,2.1,1.9,3.9,2.8,4.3
			c0.4,0.4,0.7,0.5,0.8-0.1C51.6,42.2,50.9,40.8,50.2,39.6z M45.9,20.2c-0.1,0.4-0.3,1.1-0.5,1.9c0,0,0,0,0,0
			c-0.5,1.2-0.8,2.5-0.8,3.1c0,0.5,0.2,0.6,0.3,0.5c0.4,0.2,0.6-0.6,0.8-1.4c0.6-1.4,1.2-3.5,1-4.2c0-0.2-0.1-0.3-0.2-0.2
			C46.4,19.8,46.2,19.9,45.9,20.2z M50.5,19.5c-0.5,0.4-1.9,2.2-2.7,4c-0.7,1.3-1,2.3-0.8,2.7c0,0,0,0,0,0c0.1-0.1,0.2-0.3,0.2-0.4
			c0.6-1,1.7-2.3,2.4-3.8C50.2,21.1,50.5,20.2,50.5,19.5C50.5,19.5,50.5,19.5,50.5,19.5C50.5,19.5,50.5,19.5,50.5,19.5
			C50.5,19.5,50.5,19.5,50.5,19.5C50.5,19.5,50.5,19.5,50.5,19.5z M47.9,17c0-0.1,0.1-0.1,0.1-0.2c0.6-0.4,1.2-1,1.7-1.2
			c0.4,0.2,0.8,0.6,1.2,1.2c0.1,0.3,0.1,0.5,0.2,0.9c0.1-0.1,0.2-0.1,0.4-0.2c0.1,0.1,0.2,0.3,0.3,0.5c0.6-0.4,1-0.8,1.4-1
			c0.7-0.1,1.1-0.1,1.3,0.1c-0.2,1.2-2.2,4.4-3.5,7.1c-0.7,1.1-1.3,2-1.5,2.5c0.1,0.1,0.2,0.2,0.3,0.4c-0.1,0.5-0.2,0.8-0.1,1.1
			c1.4,1,2.8,1.9,4.1,2.9c4.5,4,10.3,7.9,15.8,11.8c3.9,3,7.9,6,12,8.9c0,0,0,0,0,0.1c-10.1-2.4-17.9-4.1-24.3-5
			c-5.7-1.1-10.7-1.6-17.4-1.1c-2.9,0.2-5.6,0.5-8.5,1c-6.1,1-13.7,2.5-23.8,4.8c6.8-5.3,14.3-10.7,21.4-16.1
			c5.8-3.9,8.5-5.4,9.2-7.1c0,0,0,0,0,0c0.1,0,0.1-0.1,0.2-0.1c0.6-2.4-1.5-5.4-3.1-7.9c0,0,0,0,0,0c-0.5-0.9-1-2-1.6-3.2
			c0.8-0.1,1.4-0.1,1.8,0c0.7,0.6,1.3,1.3,1.8,0.2c0-0.1,0-0.3,0.1-0.4c0.2-0.3,0.5-0.7,0.9-1.3c0.1,0,0.2,0,0.3,0
			c0.5,0.3,0.9,0.5,1.2,0.7c0.3,0.6,0.6,0.8,0.9,0.7c0.6,0.5,0.6,0.5,1.2-0.6c0.3-0.1,0.6-0.2,0.9-0.2h0c0.1,0,0.2,0,0.3,0
			c0.3,0.1,0.7,0.3,1.1,0.8c0.2-0.3,0.4-0.6,0.5-0.7c0.4,0,0.8,0,1.2,0c0.2,0.2,0.5,0.5,0.8,0.7C47,17.1,47.4,17.2,47.9,17z
			 M44.2,43c0.9-0.1,0.9-1.7,0.7-3.5c0,0,0,0,0,0c0-1.3-0.2-2.9-0.5-4.5c0-0.2,0-0.4,0.1-0.5c-0.1-1.1-0.3-1.2-0.5-1
			c0-0.1,0-0.1-0.1-0.2c-0.1,0.3-0.2,0.6-0.2,0.8c-0.2,0.5-0.3,1-0.2,1.2c0,0.3-0.1,0.7-0.1,1c-0.2,1.8-0.2,3.3-0.2,4.4
			c0,0.7-0.1,1.4-0.2,2.1c0.7,1.1,0.9,0,1-4.5v0c0,0,0,0,0.1,0c0,1.5,0.1,2.5,0.1,3.2C44.3,42,44.3,42.3,44.2,43z"/>
		<path class="st0" d="M17.5,26.7c-1.3-1.2-2.3-2.8-2.5-4.9C15.2,23.6,16.1,25.4,17.5,26.7z"/>
		<path class="st0" d="M15,21.7c0-0.2,0-0.4,0-0.6C15,21.3,15,21.5,15,21.7z"/>
		<path class="st0" d="M15,21.1C14,22,13.1,23,12.2,24C13.1,23,14,22,15,21.1z"/>
		<path d="M21.3,42.1c-3.7,2.8-7.1,5.6-9.2,7.7C14.4,47.3,17.7,44.7,21.3,42.1z"/>
		<path class="st0" d="M8.8,64.4c0.7-1.6,2-2.8,3.4-3.9C10.9,61.6,9.7,62.9,8.8,64.4z"/>
		<path class="st1" d="M10.2,68.5c2.1-4.2,4.9-8,8.3-11C15.1,60.6,12.3,64.4,10.2,68.5z"/>
		<path class="st1" d="M29,35.4c-7.1,5.3-14.6,10.8-21.4,16.1C17.2,43.5,24.2,38.6,29,35.4z"/>
		<path class="st1" d="M10.2,68.5C6.5,76.1,5,84.9,6.6,92.3C5,85,6.3,76.2,10.2,68.5z"/>
		<path class="st0" d="M8.6,64.1c0.1,0.1,0.1,0.2,0.2,0.2C8.7,64.3,8.7,64.2,8.6,64.1z"/>
		<path class="st1" d="M17.4,106.6c-6-2.7-9.5-8-10.9-14.3C8,98.6,11.5,103.9,17.4,106.6z"/>
		<path d="M20.6,55.3c-0.1,0.5-0.2,0.8-0.1,1.4c0,0,0.1,0,0.1,0c1.3-2.9,3.1-5.2,5.7-7c0,0,0-0.1,0-0.1c-0.2,0-0.4,0.1-0.5,0.1h0
			c-0.2,0-0.6,0.1-2.7,0.5c0,0,0,0,0,0c-2.6,0.5-1.7,0.3-2.6,0.5c0.1,0.7,0.2,1.4,0.3,1.9C20.8,53.4,20.7,54.3,20.6,55.3z M22.5,13
			c-2,3-5.6,6-5.5,8.9c-0.2,1.8,1.1,3.5,5.6,5.1c-2-2.5-1.3-5.1,0-7.6c1.8-2.5,4.4-4.9,3.6-7.8c0.1-1.7-0.9-3.2-3.7-4.5
			C23.8,9.2,23.4,11.2,22.5,13z M67.6,56.7c0.2-5.4-0.5-6.2-2.3-6.5c-0.8-0.3-1.9-0.6-3.4-0.6c0,0,0,0.1,0,0.1
			C64.4,51.5,66.2,53.8,67.6,56.7z M66.2,27c4.5-2.1,5.8-3.9,5.4-5.8c-0.2-2.3-2.6-4.5-4.5-6.8c-1.2-1.7-2.1-3.7-1.9-6
			c-2.7,1.2-3.5,2.6-3.3,4.1c-0.2,2.7,2.8,5.3,4.6,8C67.7,22.7,68.1,24.9,66.2,27C66.1,27,66.1,27,66.2,27z M37.9,84.1
			c-4.7,0.4-9.2,0-13.6-1.7c1.6,1.3,3.2,2.2,4.2,2.9c0.7,1,0.2,1.5-0.8,1.5c-1.5-0.5-2.7-1.1-3.8-1.8c-2.5-2-5.1-5.9-6-12.3
			c-0.4-5.2,0.4-10.8,0.7-15.1c-3.4,3-6.2,6.8-8.3,11c0,0,0,0,0,0C6.3,76.2,5,85,6.6,92.3c1.3,6.3,4.8,11.6,10.9,14.3c0,0,0,0,0,0
			c3.7,1.7,8.4,2.4,14.1,1.7C33.5,100.2,35.8,92.2,37.9,84.1z M33.3,108.9c0.9,0.2,1.7,0.3,2.5,0.5c0,0,0,0,0,0
			c1.3,0.3,2.7,0.6,4.4,1c0.7,0.1,1.4,0.3,2,0.4c0.2-3.9,0.4-7.7,0.6-11.4c0,0,0,0,0,0c0.2-4.1,0.4-8.3,0.6-12.6c0-0.2,0-0.4,0-0.6
			c0-0.2,0-0.3,0-0.4c0-0.8,0-1.5,0-2.3c0-0.2,0-0.3,0-0.5c-1.5,0.3-3,0.7-4.5,1C37.1,92.3,35.4,100.6,33.3,108.9z M30.3,82.7
			c2,0,3.8,0,5.5-0.2c4.4-0.2,8.6-0.8,12.8-0.6c1.9,0.1,3.9,0.4,6.2,0.9c2.8,0.3,5.2-0.1,7.2-0.9c5.5-2.3,7.6-8.3,7.2-14.6
			c0,0,0,0,0,0c-0.3-5.8-2.8-11.9-6.7-15.6c0,0,0,0,0,0c-3.3-3.2-7.6-4.7-12.3-2.6c-1.8,0.7-3.6,1.8-5.5,3.3
			c-0.6-0.1-1.1-0.2-1.6-0.5c-1.3-0.8-2.8-1.8-4.4-2.5c-1.6-0.9-3.2-1.5-5.2-1.1c-0.2,0-0.5,0-0.7,0.1c-1.5,0-2.8,0.4-4.1,1
			c-4.5,2.2-7.4,7.6-8.6,13.5c-1.2,5.5-0.9,11.3,1.5,15.3c0.9,1.5,2,2.7,3.5,3.3C26.3,82.3,28.1,82.7,30.3,82.7z M47.1,8.2
			c2.1-1.4,1.5-4.9-0.9-6.1c-0.1,0-0.1,0-0.2,0c-0.4-0.2-0.9-0.3-1.4-0.3c-0.4,0-0.7,0.2-1.1,0.3c0,0,0,0,0,0
			c-1.5,0.4-2.1,1.7-2.1,3.1c-0.1,1.2,0.3,2.3,1.5,3c0.5,0.4,1.2,0.6,1.9,0.6c0,0,0,0,0,0C45.8,8.9,46.6,8.6,47.1,8.2
			C47.1,8.2,47.1,8.2,47.1,8.2z M82.3,85.7c0-7.2-2.3-15-7-21.7c0,0,0,0,0,0c-1.6-2.5-3.6-4.7-5.7-6.5c1.2,7.7,0.7,13.6-0.5,18
			c-2.1,6.3-6.1,10-8.4,11.1c-0.8,0.2-1.4,0.1-1.5-0.2c0,0,0,0,0,0c0.4-0.7,1.7-2.1,4.6-4c-4.4,1.7-9,2.1-13.6,1.7
			c0.8,3.2,1.7,6.4,2.6,9.5c0,0,0,0,0,0c0.9,4.7,1.7,9.7,3.3,12.6c0.2,0.6,0.3,1.3,0.5,1.9c0.5,0.1,0.9,0.1,1.4,0.2
			c0.3,0.2,0.6,0.3,1,0.4c3.5,0.1,6.6-0.3,9.3-1.1C78.4,104.6,82.5,95.6,82.3,85.7z M50.1,87.7c-1.2-3.1-2.8-5-5.5-4.7
			c0,0.1,0,0.3,0,0.4c0.2,8.6,0.7,17.4,1.2,27.4c3-0.5,5.9-1.3,9-1.9c-1-2.1-1.6-5.7-2.2-9.4C52.1,95.4,51.4,90.9,50.1,87.7
			C50.1,87.7,50.1,87.7,50.1,87.7z M53.1,16.9c-0.5,0.1-1,0.3-1.7,0.6c-0.2-0.3-0.4-0.5-0.5-0.7c-0.3-1.2-0.7-1.4-1.2-1.2
			c-0.6-0.4-1.2-0.1-1.7,1.2c-0.4,0.3-0.9,0.4-1.4,0.2c0-0.5-0.3-0.7-0.8-0.7c-0.3-0.3-0.7-0.5-1.2,0c-0.5,0-1.1,0-1.7,0
			c-0.1,0-0.2,0-0.3,0h0c-0.2,0-0.4-0.1-0.7-0.1c-0.1,0.1-0.1,0.2-0.2,0.3c-0.5,0.2-0.9,0.5-1.2,0.6c-0.2-0.2-0.5-0.4-0.9-0.7
			c-0.1-0.2-0.1-0.3-0.2-0.6c-0.4-0.1-0.7-0.2-1-0.2c-0.1,0-0.2-0.1-0.2-0.1c0,0.1-0.1,0.1-0.1,0.2c-0.6,0.2-0.8,0.7-0.9,1.3
			c-1.1,1.5-0.3,0.4-1.8,0.2c-0.6-0.6-1.3-1-1.8,0c0.2,0.8,0.8,1.9,1.6,3.2c0,0,0,0,0,0c2.4,4.5,3.6,6.4,3,8.1c0,0,0,0,0,0
			c-2.9,2.3-6,4.7-9.2,7.1c-4.8,3.2-11.8,8.1-21.4,16.1C18,49.5,25,47.7,31.4,46.6c3.2-0.5,5.9-0.8,8.5-1c4.9-0.3,10.3,0,17.4,1.1
			c6.2,1.2,13.2,3,24.3,5c0,0,0,0,0-0.1c-3.4-3-7.6-5.9-12-8.9c-5.3-4-10.6-8-15.8-11.8c-1.5-1.3-2.8-2.7-4-4.1
			c0.2-0.8,0.7-1.8,1.2-2.8c1.9-2.7,4.6-6.3,3.5-7.1C54.6,16.3,54.2,16.2,53.1,16.9z M48.6,48.9c1-0.5,2-0.8,3.2-1.2
			c-2.7-0.8-5.3-1.2-7.7-1.2c-2.5,0-5,0.3-7.7,1.2c0.4,0.1,0.8,0.2,1.2,0.4c0,0,0.1,0,0.1,0c1.4,0.5,2.9,1.2,4.6,2.3c0,0,0,0,0,0
			c0.7,0.4,1.3,0.9,1.8,1.2c0,0,0.1,0,0.1-0.1C45.3,50.8,46.8,49.7,48.6,48.9C48.6,48.9,48.6,48.9,48.6,48.9z M84.3,54.3
			c1.7-7,0.5-14.5-2.5-21.1c0,0,0,0,0,0c-2.1-4.6-5-8.8-8.6-12c0,0,0,0,0,0c0,2.4-1.4,4.9-3.6,6.3c0,0,0,0,0,0
			c-2.1,1.2-4.7,1.5-6.8,0.8c-0.4-0.2-0.9-0.4-1.3-0.6c4.1-1.2,4.9-3.4,3.6-6.2c-0.9-2.5-3.2-5.1-4.8-7.3c-0.4-1.7-0.1-2.2-1.8-2.9
			c-1.5-1.1-3-1.6-4.5-1.9c-3-1.4-5.8,0.1-8.5,0.8c-2.3,0.3-4.5,0.1-6.5-1.8c-1.3,0.3-2.7,0.7-4,1.1c-1.9,0.5-4,1.1-5.8,2.1
			c-0.5,0.2-1,0.5-1.5,0.7c0,0.1,0,0.2-0.1,0.3c-0.1,0.1-0.2,0.1-0.2,0.2c0,0.2,0.1,0.3,0.1,0.5c-0.4,1.5-1.2,3-2,4.3
			c-1.6,2.2-3.4,4.5-2.9,6.6c0.2,1.4,1.3,2.6,4.3,3.6c-1.2,0.6-2.3,0.9-3.4,1c-2,0.1-4.2-0.6-5.8-2c-1.4-1.3-2.3-3-2.5-4.9
			c0,0,0,0,0,0c0-0.2,0-0.4,0-0.6C14,22,13.1,23,12.2,24c0,0,0,0-0.1,0.1c-4.7,5.5-7.8,12.4-8.8,19.4c-1,7.2,0.4,14.6,5.2,20.7
			c0,0,0,0,0,0c0.1,0.1,0.1,0.2,0.2,0.2c0.9-1.5,2.1-2.7,3.4-3.9c2.5-2,5.5-3.8,5.9-7c0.1-0.7,0.1-1.4-0.1-2.2
			c-5.9,1.6-9.7,2.3-11.7,2.2c0,0,0,0,0,0c-3.7-0.3,0-3.9,5.9-8.4c6.3-4.6,14.9-10.1,20.6-14.6c1.9-1.4,3.3-2.6,3.9-3.3
			c-0.3-0.8-1.7-3.2-2.9-5.5c0,0,0,0,0,0c-1.2-2.7-1.9-5.2-0.7-5.9c0.7-0.2,1.7-0.1,3.4,0.5c0-0.1,0.1-0.2,0.1-0.2c0,0,0,0,0,0
			c0.3-0.6,0.9-1.2,1.6-1.4c0.8-0.1,1.6,0.2,2.1,0.7c0,0,0,0,0,0c0.1,0.1,0.3,0.3,0.4,0.5c0.9-1.5,2.2-1.6,3.3-0.9
			c0.5-0.2,1.2-0.6,2-0.3c0.6,0.3,1,0.8,1.2,1.2c0.4-0.6,1.1-1.1,1.8-1.3c0.8-0.1,1.5,0.3,2,0.8c0,0,0,0,0,0
			c0.2,0.2,0.3,0.5,0.4,0.8c1.9-0.7,3-0.7,3.6-0.4c1.1,0.8,0.1,3.4-1.3,6c0,0,0,0,0,0c-1.3,2.3-2.8,4.5-3.2,5.3
			c0.3,0.4,0.7,0.8,1.2,1.2c0,0,0,0,0.1,0.1c3.8,3.4,11.5,8.4,18.3,13.1c8.7,6,15.9,11.5,11.4,12c-2,0.1-6-0.6-12.8-2.5
			c-0.1,1,0.1,1.9,0.4,2.8c0.9,2.8,3.1,4.8,5.2,6.8c1.4,1.5,2.8,3.1,3.7,4.9C81.4,62.3,83.3,58.5,84.3,54.3
			C84.3,54.3,84.3,54.3,84.3,54.3z M72.7,8.4c-24.6-5.7,35.3,28,6.6,59c16.1,37-9.2,46.8-40.9,44.5c-32-0.2-44-18.7-31-45.2
			c-27.8-39.6,34-59.3,8.1-58.2C17.6,4.8,24.8,4.9,27,10c3.6-1.6,7.3-2.7,11.3-3.4c-1.2-7.6,11.8-9.8,11.5,0c3,0.6,6.5,1.6,10.7,3.5
			C62.3,6.8,69.2,3.3,72.7,8.4z"/>
		<path class="st0" d="M6.3,53.5c2,0,5.7-0.6,11.7-2.2C11.8,53,8.1,53.7,6.3,53.5z"/>
		<path class="st0" d="M6.3,53.5c-4.5-0.1-0.5-3.7,5.9-8.4C6.3,49.5,2.6,53.1,6.3,53.5z"/>
		<path class="st0" d="M12.2,24.1c-4.5,5.3-7.8,12.2-8.8,19.4C4.3,36.5,7.5,29.6,12.2,24.1z"/>
		<path class="st0" d="M81.8,33.2c3,6.7,4.1,14.3,2.5,21.1c0,0,0,0,0,0c-1,4-2.9,7.8-6,11.2c-0.8-1.9-2.2-3.4-3.7-4.9
			c-2.1-2.3-4.4-4.4-5.2-6.8C69.1,53,69,52.1,69,51c6.9,2,10.9,2.7,12.8,2.5c5-0.3-2.4-5.8-11.4-12c-6.9-4.8-14.7-9.9-18.3-13.1
			c0,0,0,0-0.1-0.1c-0.5-0.4-0.9-0.8-1.2-1.2c0.9-1.4,2.2-3.4,3.2-5.3c0,0,0,0,0,0c1.4-2.6,2.6-5.2,1.3-6c-0.6-0.4-1.7-0.4-3.6,0.4
			c-0.1-0.3-0.2-0.6-0.4-0.8c0,0,0,0,0,0c-0.6-0.8-1.3-1-2-0.8c-0.7,0.1-1.3,0.4-1.8,1.3c-0.4-0.7-0.8-1-1.2-1.2
			c-0.5-0.2-1.2-0.2-2,0.3c-1.1-0.7-2.4-0.7-3.3,0.9c-0.1-0.2-0.2-0.3-0.4-0.5c0,0,0,0,0,0c-0.7-0.8-1.5-0.9-2.1-0.7
			c-0.6,0.1-1.2,0.5-1.6,1.4c0,0,0,0,0,0c0,0.1-0.1,0.2-0.1,0.2c-1.7-0.8-2.8-0.9-3.4-0.5c-1.6,0.6-0.7,3.3,0.7,5.9c0,0,0,0,0,0
			c0.9,2,2,4.1,2.9,5.5c-1,1-2.3,2.1-3.9,3.3c-5.2,3.9-14.2,9.7-20.6,14.6c-6.5,4.7-10.4,8.3-5.9,8.4c0,0,0,0,0,0
			c1.8,0.2,5.5-0.5,11.7-2.2c0.2,0.8,0.2,1.5,0.1,2.2c-0.5,2.8-3.3,4.7-5.9,7c-1.4,1.1-2.7,2.3-3.4,3.9c-0.1-0.1-0.1-0.2-0.2-0.2
			c0,0,0,0,0,0c-4.8-6-6.2-13.4-5.2-20.7c1-7.1,4.3-14.1,8.8-19.4c0,0,0,0,0.1-0.1c0.9-1,1.8-2,2.8-2.9c0,0.2,0,0.4,0,0.6
			c0,0,0,0,0,0c0.2,2.1,1.2,3.7,2.5,4.9c1.5,1.4,3.5,2.2,5.8,2c1.2-0.1,2.4-0.4,3.4-1c-2.8-1.1-4-2.3-4.3-3.6
			c-0.2-1.9,1.4-4.1,2.9-6.6c1.1-1.5,2.1-3,2-4.3c0.1-0.2,0.1-0.5,0.2-0.7c0.5-0.4,1-0.7,1.5-1c1.7-0.7,3.7-1.5,5.8-2.1
			c1.5-0.4,2.8-0.7,4-1.1c2.3,2.2,4.4,2.2,6.5,1.8C48.1,9.7,51,8.8,54,9.3c0.4,0.2,0.8,0.4,1.1,0.6c1.6,0.5,2.6,0.9,3.3,1.2
			c0.1,0.1,0.2,0.1,0.2,0.2c0.2,0.8,0.8,1.7,1.6,2.8c0.1,0.5,0.3,1.2,0.7,2c1.9,1.9,3.4,3.7,4.1,5.3c1,2.6,0.6,4.9-3.6,6.2
			c0.4,0.3,0.9,0.5,1.3,0.6c2.5,0.9,4.9,0.5,6.8-0.8c0,0,0,0,0,0c2.1-1.2,3.6-3.3,3.6-6.3c0,0,0,0,0,0
			C76.7,24.4,79.7,28.6,81.8,33.2C81.8,33.2,81.8,33.2,81.8,33.2z"/>
		<path class="st0" d="M8.6,64.1C3.7,58,2.4,50.6,3.4,43.5C2.4,50.8,3.9,58.2,8.6,64.1z"/>
	</g>
	<g>
	</g>
</g>
</svg>
