<!-- Generator: Adobe Illustrator 24.0.0, SVG Export Plug-In  -->
<svg version="1.1" xmlns="http://www.w3.org/2000/svg" xmlns:xlink="http://www.w3.org/1999/xlink" x="0px" y="0px" width="379.8px"
	 height="353.6px" viewBox="0 0 379.8 353.6" style="enable-background:new 0 0 379.8 353.6;" xml:space="preserve">
<style type="text/css">
	.st0{clip-path:url(#SVGID_7_);}
	.st1{clip-path:url(#SVGID_8_);}
	.st2{opacity:0.23;clip-path:url(#SVGID_9_);}
	.st3{clip-path:url(#SVGID_10_);}
	.st4{clip-path:url(#SVGID_9_);}
	.st5{clip-path:url(#SVGID_11_);}
	.st6{clip-path:url(#SVGID_12_);}
	.st7{clip-path:url(#SVGID_12_);fill:#E56452;}
	.st8{clip-path:url(#SVGID_12_);fill:#9E633B;}
	.st9{clip-path:url(#SVGID_12_);fill:#FFFFFF;}
	.st10{clip-path:url(#SVGID_12_);fill:#EFA2B5;}
	.st11{clip-path:url(#SVGID_12_);fill:#FCE0BF;}
	.st12{clip-path:url(#SVGID_14_);}
	.st13{clip-path:url(#SVGID_16_);}
	.st14{opacity:0.23;clip-path:url(#SVGID_18_);}
	.st15{clip-path:url(#SVGID_20_);}
	.st16{clip-path:url(#SVGID_18_);}
	.st17{clip-path:url(#SVGID_22_);}
	.st18{clip-path:url(#SVGID_24_);}
	.st19{clip-path:url(#SVGID_24_);fill:#E56452;}
	.st20{clip-path:url(#SVGID_24_);fill:#9E633B;}
	.st21{clip-path:url(#SVGID_24_);fill:#FFFFFF;}
	.st22{clip-path:url(#SVGID_24_);fill:#EFA2B5;}
	.st23{clip-path:url(#SVGID_24_);fill:#FCE0BF;}
</style>
<defs>
</defs>
<g>
	<g>
		<defs>
			<rect id="SVGID_1_" width="379.8" height="353.6"/>
		</defs>
		<clipPath id="SVGID_7_">
			<use xlink:href="#SVGID_1_"  style="overflow:visible;"/>
		</clipPath>
		<g class="st0">
			<defs>
				<rect id="SVGID_2_" width="379.8" height="353.6"/>
			</defs>
			<clipPath id="SVGID_8_">
				<use xlink:href="#SVGID_2_"  style="overflow:visible;"/>
			</clipPath>
			<g class="st1">
				<defs>
					<rect id="SVGID_3_" width="379.8" height="353.6"/>
				</defs>
				<clipPath id="SVGID_9_">
					<use xlink:href="#SVGID_3_"  style="overflow:visible;"/>
				</clipPath>
				<g class="st2">
					<g>
						<defs>
							<rect id="SVGID_6_" x="41.3" y="319.6" width="292.1" height="32.2"/>
						</defs>
						<clipPath id="SVGID_10_">
							<use xlink:href="#SVGID_6_"  style="overflow:visible;"/>
						</clipPath>
						<path class="st3" d="M333.3,335.7c0,8.9-65.4,16.1-146,16.1c-80.7,0-146-7.2-146-16.1c0-8.9,65.4-16.1,146-16.1
							C268,319.6,333.3,326.8,333.3,335.7"/>
					</g>
				</g>
				<g class="st4">
					<defs>
						<rect id="SVGID_4_" width="379.8" height="345.4"/>
					</defs>
					<clipPath id="SVGID_11_">
						<use xlink:href="#SVGID_4_"  style="overflow:visible;"/>
					</clipPath>
					<g class="st5">
						<defs>
							<rect id="SVGID_5_" width="379.8" height="345.4"/>
						</defs>
						<clipPath id="SVGID_12_">
							<use xlink:href="#SVGID_5_"  style="overflow:visible;"/>
						</clipPath>
						<path class="st6" d="M377.3,144.9c2.1,1.7,2.9,3.7,2.3,6.4c-4.8,22.8-17.5,39.8-38,50.8c-4.1,2.2-8.7,3.3-13.6,5.2
							c0.7,1.7,1.5,3.5,2.2,5.3c6.6,15.2,11.4,30.9,11.6,47.6c0.5,31.8-14,54.7-41.7,69.5c-14.2,7.6-29.6,11.4-45.4,13.8
							c-20.7,3.1-41.4,2-62.1,0.1c-1.8-0.2-3.7-0.2-5.5,0c-20.7,1.9-41.4,3-62.1-0.1c-15.8-2.3-31.2-6.1-45.4-13.7
							c-21.5-11.4-36-28.3-40.6-52.8c-2.9-15.6-1.1-31,3.6-46c2.5-8,5.8-15.8,8.8-24.1c-1-0.3-2.1-0.9-3.2-1.1
							c-20-4.4-43.8-27.5-48.1-55c-0.4-2.5,0.2-4.3,2.2-5.9c10.6-8.6,21.2-17.2,31.6-26c16-13.5,31.9-27.1,47.9-40.7
							c0.8-0.7,1.3-1.7,2.2-2.9C69.8,65.9,66.4,53.6,74.2,38c-2.5-1-4.9-2-7.2-2.9c-1.2-0.5-2.7-0.6-3.6-1.4c-1-0.8-2.1-2.4-1.9-3.4
							c0.4-1.9,2.2-2.4,4-1.8c1.8,0.6,3.5,1.4,5.2,2.1c2.2,1,4.3,2,6.3,3c4.6-3.8,8.9-7.4,13.7-11.3c-1-2.3-2-4.9-3.1-7.4
							c-0.7-1.7-1-3.4,0.9-4.4c1.9-1,3.3,0.3,4.1,1.8c1.4,2.4,2.4,5,3.6,7.5c5.7-1.3,11.3-2.6,17.5-4c0-3.3,0-6.8,0-10.2
							c0-4,0.9-5.7,3-5.7c2.1,0,3.4,1.8,3.6,5.5c0.2,3.3,0,6.7,0,10.6c14.2,2,25.7,7.6,29.3,22.8c7.9-1.6,15.5-3.2,23.2-4.6
							c5-0.9,9.9-1.8,14.9-2.5c1.6-0.2,3.3-0.1,5,0.2c12.3,2.1,24.6,4.3,37,6.5c6.3-15.2,10.7-18.7,29.3-22.6
							c0.1-3.1,0.2-6.4,0.4-9.7c0.3-4.5,1.6-6.6,3.9-6.3c2.1,0.3,2.9,2.3,2.6,6.5c-0.2,3-0.3,6-0.4,9.2c6,1.4,11.8,2.7,17.9,4.2
							c0.6-1.4,1.2-2.9,2-4.3c0.8-1.5,1.5-3.1,2.6-4.3c0.6-0.7,2.4-1.2,2.9-0.8c0.8,0.7,1.4,2.1,1.5,3.2c0.1,1-0.7,2.1-1.1,3.1
							c-0.8,1.9-1.6,3.7-2.4,5.5c4.6,3.8,8.9,7.3,13.7,11.3c1.3-0.6,2.9-1.3,4.6-2c1.9-0.8,3.7-1.7,5.6-2.5c2-0.8,4.2-1.6,5.3,1
							c1.1,2.6-1.1,3.6-3.1,4.3c-1.9,0.7-3.9,1.3-5.8,2c-1.2,0.4-2.3,1.1-3.6,1.7c7.4,15.3,4.6,27.8-10,37.3c1,1.2,1.6,2.4,2.5,3.2
							c16.1,13.7,32.1,27.4,48.3,41C356.7,128.1,367,136.5,377.3,144.9 M324.1,199.6c21.8-3.7,44.8-25.4,46.9-43.8
							c-19.2-12.9-74.9-25-94.1-24.6c1.8,4.4,3.6,8.6,5.5,12.9c0.4,0.8,1.1,1.5,1.8,2.1c10.3,10.1,19.1,21.4,27.2,33.3
							C316,186,320,192.9,324.1,199.6 M357,139.3c-0.7-1-0.9-1.5-1.3-1.8c-21.8-18.8-43.6-37.6-65.3-56.5c-2.5-2.2-5.1-2.4-8.2-2
							c-15.7,1.7-29.6-2.5-41.3-13.4c-0.8-0.7-1.7-1.6-2.2-2.5c-3.1-5.7-6.1-11.4-9.1-17.1c-12.4-2.4-25-4.8-37.7-7.2
							c-1.2-0.2-2.6-0.3-3.9,0c-12.7,2.4-25.3,4.8-38.6,7.3c-0.5,1.4-0.7,2.9-1.5,4.1c-2.9,5.1-5.1,11.1-9.1,15.1
							c-11.2,11.3-25.4,15.3-41.1,13.6c-3.7-0.4-6.4,0.3-9.1,2.7c-20.9,18.1-41.9,36.2-62.8,54.3c-1,0.8-1.8,1.8-3.2,3.4
							c1.9-0.3,3-0.5,4-0.7c9.9-2.6,19.8-5.7,29.8-7.9c33.1-7.3,66.7-11.2,100.6-11.6c11.4-0.1,22.8,1.1,34.2,0.6
							c33.2-1.7,66.2-0.1,99,5c21.6,3.3,43.2,6.6,63.9,14.2C354.8,139.2,355.7,139.1,357,139.3 M332.8,272.2
							c1.5-11.5,0-22.8-2.9-33.9c-7.6-28.5-22.4-53.2-39.8-76.6c-0.4-0.5-1-0.7-1.1-0.8c2,14.3,4.1,28.6,6.1,43.3
							c17.7,10.4,27,19.7,26.1,27.2c-5.5-4.2-9.8-9.5-16.3-11.6c4.5,5.1,9.3,9.9,11.9,16.3c-8.1-4.4-15-10.4-24-13.3
							c-0.4,1.6-0.7,2.5-0.9,3.4c-0.2,1.1-0.4,2.2-0.6,3.3c17.9,12.5,30.9,29,40.2,49.8C332.1,276.2,332.5,274.3,332.8,272.2
							 M325.9,294.1c2.5-4.3,3.1-8.8,1.8-13.5c-0.8-2.9-1.7-5.7-3-8.5c-6.8-14.8-17.1-26.6-30.3-36.1c-1.2-0.8-2.5-1.4-4.1-2.3
							c-0.9,2.6-1.7,4.8-2.7,7.8c0.2,0.1,0.5,0.3,0.7,0.4l-1.6,2.4c-1.8,3.2-2.7,4.7-3.4,6.2c-5.8,10.8-15.1,17.9-25.1,24.3
							c-1.7,1-3.4,1.7-5.1,0.1c-1.6-1.5-1.7-3.4-0.7-5.1c4.4-7.7,4.8-16.4,6.3-24.9c0.8-4.5,0.7-9.2,1.1-14.3
							c-13.3,1.9-25.8,3.7-38.1,5.4c2.2,16.7,4.8,33,6.4,49.3c1.6,16.3,2.2,32.6,3.4,49.6c10.7-1.4,21.1-2.4,31.4-4.1
							c14.5-2.4,28.4-6.7,41-14.4c4.1-2.5,7.8-5.3,11.2-8.4C319.1,304.1,322.9,299.5,325.9,294.1 M312.2,221
							c0.2-0.3,0.4-0.5,0.7-0.8c-1.2-0.9-2.3-1.8-3.5-2.6c-3.8-5-9.1-7.7-15.2-10v3.3c5.4,2.5,10.2,4.8,14.9,7
							C310.1,219,311.1,220,312.2,221 M301.8,221.7c0.2-0.3,0.4-0.6,0.7-0.9c-2.7-2.1-5.5-4.2-9.1-6.9
							C293.7,221.1,299.3,219.3,301.8,221.7 M294.1,67.2c7.6-4.8,10.3-12.8,6.7-20.8c-1.8-4-4.5-7.8-7.6-10.8
							c-6.5-6.2-14.6-9.7-23.5-10.8c-7.9-1-15.7-0.3-22.7,4c-10.2,6.3-12.2,19.9-3.9,28.5c9.1,9.5,20.3,14.2,33.4,14.6
							C282.7,71.9,288.7,70.6,294.1,67.2 M282,231.5c7.9-31.9,4.2-62.7-10.3-92.1c-1.1-2.3-2.9-4.3-4.3-6.6
							c-1.2-1.9-2.8-2.7-5.1-2.8c-7.3-0.2-14.6-0.6-21.8-0.8c-1.2,0-2.3,0.3-3.1,0.4c3.3,6.6,6.4,12.9,9.5,19.3
							c1.2,2.5,2,5.2,4.7,6.7c0.7,0.4,1.5,1.7,1.3,2.2c-1.9,4.5,0.9,8,2.3,11.6c9.9,26,13.3,52.8,10.2,80.4
							c-0.3,2.9-0.8,5.8-1.2,8.6c4.1-3.5,6.1-8.1,7.8-12.7c5.1-13.9,6.9-28.2,5.9-43c-1.5-22-7.6-42.5-19.6-61.2
							c-0.7-1.2-1.4-2.5-2-3.7c0.4-0.2,0.9-0.4,1.3-0.5c21.4,33.7,28,69.9,18.4,109.1C278.5,241.6,280.7,236.6,282,231.5
							 M258.7,227.3c1.6-9.1-2.1-34.5-6.3-43.7c-12.1-1.6-26.9,7.3-30.2,20.6c-3.5,14,7.3,23.9,16.7,24.4
							C245.5,229,252.2,227.8,258.7,227.3 M251.9,180c-1.8-7.5-4.6-14.7-8-21.8c-0.5-1-1.8-1.9-2.9-2.2c-6.4-1.6-12.3-0.5-17.4,3.7
							c-3.1,2.5-4.4,5.9-3.8,10c0.2,1.3,0.5,2.6,0.3,3.9c-0.4,2.3-1.9,3.7-4.3,3.6c-2.1-0.1-3.5-1.4-4-3.4c-0.3-1.1-0.3-2.3-0.1-3.3
							c2.1-11.2,10.3-19.5,21.6-20c1.9-0.1,3.7,0,6.5,0c-3.3-7.1-7.5-12.5-11.8-17.9c-1.7-2.1-3.4-3-6.1-3
							c-20.2,0.1-40.3,0.3-60.5,0c-5-0.1-8.4,1.2-11.2,5.3c-3.4,4.9-7.1,9.4-9.7,15.6c2,0,3.4,0,4.8,0c11.8,0.2,21.1,8.2,23,19.8
							c0.2,1.3,0.1,2.6-0.2,3.9c-0.5,2-2,3.2-4.1,3.2c-2.3-0.1-3.8-1.5-4.1-3.9c-0.1-1.3,0.1-2.6,0.2-3.9c0.5-5-1.6-8.6-5.8-11.2
							c-3.7-2.2-7.6-2.9-11.8-2.8c-4,0-6.6,1.7-7.9,5.7c-1.7,5.1-3.8,10.1-5.6,15.3c-0.5,1.3-0.5,2.7-0.8,4.2c1,0.2,1.5,0.3,2.1,0.4
							c0.6,0.1,1.1,0,1.7,0.1c9.4,1.4,17.5,5.3,23.2,13.2c7.8,10.8,6.2,24-3.9,32.7c-0.9,0.8-1.7,1.6-3.1,2.9
							c11.4,1.4,21.9,2.7,32.5,3.8c4.6,0.5,9.3,0.8,13.9,0.6c6.1-0.4,12.3-1.3,18.4-2.1c6.1-0.7,12.1-1.5,19-2.4
							c-2-1.8-3.3-3-4.6-4.2c-4-3.9-6.6-8.5-7-14.2c-0.9-12.3,6.5-23.6,18.9-28C243.1,181.8,247.4,181.1,251.9,180 M223.4,334.7
							c1.5-10.6-4.5-89.5-7.5-98.1c-7.8,1-15.7,2-23.2,3v94.5C203.6,334.5,213.5,335.9,223.4,334.7 M186.9,333.8v-94.1
							c-7.7-1.3-15.7-2.6-24.3-2.9c-2.2,32.8-7.4,64.8-7.1,97.9C166.4,335.7,176.3,334.8,186.9,333.8 M137.1,228.6
							c12.3,1.2,22.5-9.5,20.9-21.7c-1.5-11.1-10.8-20.7-22.4-22.8c-2.8-0.5-5.7-1.8-8.8-0.2c-3.8,14.1-6.7,28.3-6.1,43.3
							C126.4,227.7,131.7,228.2,137.1,228.6 M149.5,334.7c-0.5-33.6,3.9-66,9.2-98.6c-12.9-1.8-25.2-3.6-37.6-5.3
							c-1.5,9.1,1.8,29.3,6.2,38.3c1,2,1.6,3.8-0.2,5.6c-1.9,1.9-3.7,1.1-5.6,0c-10.4-6.5-19.8-14-25.6-25.3c-0.6-1.2-1.5-2.3-2.6-4
							C78,260.7,70.4,278.6,70,299.6c0,2,1.6,5.1-1.8,5.5c-1.2,0.1-1.9-0.3-2.3-1.1c-0.6-1.1-0.6-2.7-0.8-3.9
							c-1.3-6.8,0.2-13.5,2.2-19.9c4.5-13.9,11.2-26.5,22.1-36.5c2.2-2,2.6-3.9,1.4-6.4c-0.5-1-0.8-2-1.4-3.6
							c-2.1,1.3-3.9,2.2-5.4,3.4c-10.8,8-19.7,17.8-26.1,29.6c-2.6,4.9-4.2,10.3-6,15.6c-1.3,3.8-0.3,7.4,1.6,10.8
							c2.5,4.5,5.4,8.6,8.8,12.2c2.7,2.8,5.6,5.4,8.9,7.8c7.5,5.4,15.7,9.4,24.4,12.4c12.8,4.3,26.1,6.6,39.5,8
							C139.5,333.9,144.1,334.3,149.5,334.7 M141.8,131.9c0.4-0.7,0.6-1.5,0.9-2.3c-6,0-11.6-0.1-17.2,0c-12.1,0.3-13,0.9-18.3,11.6
							c-1.2,2.3-2.2,4.7-3.2,7.2c-5.9,14.3-9.2,29.2-10,44.6c-0.9,17,1.1,33.6,7.6,49.5c0.7,1.7,1.7,3.3,2.9,5.8
							c0.2-1.5,0.4-1.9,0.3-2.2c-4.6-14.3-5.9-28.8-4.6-43.7c1.5-18.1,6.1-35.3,14.3-51.4c0.7-1.3,1.8-2.4,2.7-3.5
							c-0.5,1.4-0.9,2.9-1.5,4.3c-11.2,23.3-16.4,47.6-12.9,73.4c1.5,11,4.4,21.6,10.2,31.2c0.7,1.1,1.6,2.1,3,3.8
							c-0.7-5.4-1.5-9.8-1.8-14.3c-2.2-27.1,1.2-53.4,11.6-78.6c1.3-3.3,2.9-6.5,0.8-10.5c5-2,5.7-6.7,7.7-10.7
							C136.5,141.3,139.2,136.6,141.8,131.9 M137,56.5c8.2-9.3,6.7-21.8-5.2-28.5c-5-2.8-10.5-3.8-16.2-3.8
							c-10.5,0.1-19.7,3.6-27.9,10c-4.3,3.4-7.5,7.8-9.3,13.1c-2.3,6.9-0.6,13.7,5.2,18.1c2.9,2.2,6.4,4.2,9.9,5
							C110.7,74.4,125.7,69.5,137,56.5 M95.4,146.2c2.3-2.3,6.3-11.5,6.6-15.9c-32.4,4.3-64.3,9.9-93.8,25.3
							c6.2,22.4,26.7,41.1,47.5,43.8c2-3,4.1-6.1,6-9.3C70.9,174,82.4,159.5,95.4,146.2 M90.8,160.8c-1.1,1.2-2.2,2.2-3,3.4
							c-13.4,18.3-25,37.7-33.1,59c-5.1,13.4-8.4,27.2-8.2,41.6c0.1,4.3,0.8,8.7,1.2,13c0.4,0.1,0.8,0.2,1.2,0.2
							c8.8-19.7,21.7-36,39.5-48.5c-0.4-2.2-0.9-4.3-1.3-6.7c-9.5,2.8-16,9.4-23.8,13.7c-0.4-0.6-0.7-0.9-0.6-0.9
							c3.7-5.1,7.5-10.3,11.3-15.4c-2.8,1.2-5.4,2.9-7.9,4.7c-2.6,1.8-4.3,5-7.8,5.9c0.5-7.8,8.1-15.3,26.5-26.7
							C86.8,189.5,88.8,175.4,90.8,160.8 M84.8,218.9c2.7-1.1,1.7-2.6,0.5-4.5c-2.6,2.1-4.9,3.9-7.2,5.8c0.2,0.3,0.4,0.6,0.5,0.9
							C80.7,220.4,82.8,219.7,84.8,218.9 M85.7,211.3c-0.1-0.9-0.2-2.1-0.4-3.5c-7,2.4-12.4,6.3-16.8,11.6c2.8-1.4,5.3-3.2,8.1-4.6
							C79.5,213.5,82.5,212.6,85.7,211.3"/>
						<path class="st7" d="M371.1,155.8c-2.1,18.4-25.2,40.1-46.9,43.8c-4.1-6.6-8.2-13.5-12.7-20.1c-8.1-11.9-16.9-23.3-27.2-33.3
							c-0.7-0.6-1.4-1.3-1.8-2.1c-1.9-4.2-3.6-8.5-5.5-12.9C296.1,130.8,351.9,142.8,371.1,155.8"/>
						<path class="st7" d="M355.7,137.5c0.4,0.3,0.6,0.8,1.3,1.8c-1.4-0.1-2.2-0.1-3-0.4c-20.7-7.6-42.3-10.9-63.9-14.2
							c-32.8-5-65.8-6.7-99-5c-11.4,0.6-22.8-0.7-34.2-0.6c-33.9,0.4-67.5,4.3-100.6,11.6c-10,2.2-19.9,5.2-29.8,7.9
							c-1,0.3-2.1,0.4-4,0.7c1.5-1.6,2.3-2.6,3.2-3.4c20.9-18.1,41.9-36.1,62.8-54.3c2.7-2.4,5.4-3.1,9.1-2.7
							c15.7,1.8,29.9-2.3,41.1-13.6c4-4.1,6.2-10,9.1-15.1c0.7-1.3,1-2.8,1.5-4.1c13.3-2.5,25.9-5,38.6-7.3c1.2-0.2,2.6-0.2,3.9,0
							c12.7,2.4,25.3,4.8,37.7,7.2c3,5.7,6,11.4,9.1,17.1c0.5,1,1.4,1.8,2.2,2.5c11.7,10.8,25.6,15.1,41.3,13.4
							c3.2-0.4,5.7-0.2,8.2,2C312.1,99.8,333.9,118.6,355.7,137.5 M204,69.7c2.5-2,7.1-1.3,7.2-6.5c-7.1,0.8-14,2.1-20.8,2.1
							c-7.1,0-14.2-1.3-21.5-2c-0.6,5.5,4.9,4.2,7.4,7c0.1,1.9,0.2,4.3,0.5,6.7c0.9,9.2,2.3,18.2,9.2,25.3c2.3,2.4,5.6,2.6,7.8,0.2
							c4-4.6,7.1-9.6,7.9-15.8C202.4,81,203.2,75.3,204,69.7"/>
						<path class="st8" d="M329.8,238.4c2.9,11.1,4.4,22.4,2.9,33.9c-0.3,2-0.7,4-1.3,7.2c-9.2-20.8-22.2-37.3-40.2-49.8
							c0.2-1.2,0.3-2.3,0.6-3.3c0.2-0.9,0.4-1.8,0.9-3.4c9,2.9,15.9,9,24,13.3c-2.6-6.4-7.4-11.2-11.9-16.3
							c6.5,2.1,10.9,7.4,16.3,11.6c0.8-7.5-8.5-16.8-26.1-27.2c-2.1-14.7-4.1-29-6.1-43.3c0.1,0.1,0.8,0.4,1.1,0.8
							C307.4,185.1,322.3,209.9,329.8,238.4"/>
						<path class="st8" d="M327.7,280.7c1.3,4.7,0.7,9.1-1.8,13.5c-3.1,5.3-6.8,10-11.1,14l-2.7-3c1.5,0,2.3-1.7,2.3-3
							c0.1-5,0.7-10.2-0.3-15c-3.5-16.9-11.3-31.6-23.8-43.6c-0.6-0.6-1.3-1-2-1.4c-0.2-0.1-0.5-0.3-0.7-0.4c1-3,1.8-5.2,2.7-7.8
							c1.6,0.9,3,1.5,4.1,2.3c13.2,9.4,23.5,21.3,30.3,36.1C326,274.9,326.9,277.8,327.7,280.7"/>
						<path class="st8" d="M312.1,305.2l2.7,3c-3.4,3.2-7.1,5.9-11.2,8.4c-12.7,7.7-26.6,12-41,14.4c-10.3,1.7-20.7,2.8-31.4,4.1
							c-1.1-17-1.8-33.4-3.4-49.6c-1.6-16.4-4.2-32.6-6.4-49.3c12.3-1.8,24.8-3.5,38.1-5.4c-0.4,5.1-0.3,9.8-1.1,14.3
							c-1.4,8.4-1.9,17.1-6.3,24.9c-1,1.8-0.9,3.6,0.7,5.1c1.7,1.6,3.5,1,5.1-0.1c10.1-6.3,19.4-13.5,25.1-24.3
							c0.8-1.5,1.6-2.9,3.4-6.2c2.3,2.9,4,5.1,5.8,7.3c10.4,12.7,15.9,27.4,17.4,43.6c0.2,2-0.4,4.1-0.3,6.1
							c0.1,1.3,0.8,3.2,1.7,3.5C311.5,305.1,311.8,305.2,312.1,305.2"/>
						<path class="st6" d="M314.1,287.1c1,4.8,0.4,10,0.3,15c0,1.4-0.8,3-2.3,3c-0.3,0-0.6,0-0.9-0.2c-0.9-0.3-1.6-2.3-1.7-3.5
							c-0.2-2,0.4-4.1,0.3-6.1c-1.5-16.2-7-30.9-17.4-43.6c-1.8-2.2-3.5-4.4-5.8-7.3l1.6-2.4c0.7,0.4,1.4,0.9,2,1.4
							C302.8,255.5,310.7,270.2,314.1,287.1"/>
						<path class="st9" d="M312.8,220.2c-0.2,0.3-0.4,0.5-0.7,0.8c-1.1-1-2.1-2.1-3.2-3.1l0.3-0.3
							C310.5,218.5,311.7,219.4,312.8,220.2"/>
						<path class="st9" d="M309.3,217.6l-0.3,0.3c-4.8-2.2-9.6-4.5-14.9-7v-3.3C300.2,210,305.5,212.6,309.3,217.6"/>
						<path class="st9" d="M302.4,220.8c-0.2,0.3-0.4,0.6-0.7,0.9c-2.5-2.4-8.1-0.6-8.5-7.8C296.9,216.6,299.7,218.7,302.4,220.8"/>
						<path class="st9" d="M300.8,46.3c3.6,8.1,0.9,16-6.7,20.8c-5.3,3.4-11.3,4.7-17.6,4.6c-13.1-0.4-24.4-5.1-33.4-14.6
							c-8.3-8.7-6.3-22.2,3.9-28.5c7-4.3,14.8-5,22.7-4c8.9,1.1,17,4.6,23.5,10.8C296.3,38.5,298.9,42.3,300.8,46.3 M275.5,45.3
							c0.1-3.8-2.5-7-5.7-7c-3.9,0-7.7,3.2-7.7,6.6c0,3.9,3.3,7.4,6.9,7.5C272.5,52.4,275.4,49.2,275.5,45.3"/>
						<path class="st9" d="M271.7,139.3c14.5,29.5,18.2,60.2,10.3,92.1c-1.3,5.2-3.5,10.1-5.9,15c9.6-39.2,3-75.4-18.4-109.1
							c-0.4,0.2-0.9,0.4-1.3,0.5c0.7,1.2,1.3,2.5,2,3.7c11.9,18.7,18.1,39.2,19.6,61.2c1,14.7-0.8,29.1-5.9,43
							c-1.7,4.6-3.7,9.2-7.8,12.7c0.4-2.9,0.8-5.7,1.2-8.6c3.2-27.6-0.2-54.4-10.2-80.4c-1.4-3.6-4.2-7.2-2.3-11.6
							c0.2-0.5-0.6-1.8-1.3-2.2c-2.7-1.5-3.5-4.2-4.7-6.7c-3.1-6.4-6.2-12.7-9.5-19.3c0.7-0.1,1.9-0.5,3.1-0.4
							c7.3,0.2,14.6,0.6,21.8,0.8c2.3,0.1,3.9,0.8,5.1,2.8C268.8,135,270.6,137,271.7,139.3"/>
						<path class="st6" d="M269.8,38.3c3.2,0,5.8,3.2,5.7,7c-0.1,3.9-3.1,7.1-6.5,7.1c-3.6,0-6.9-3.6-6.9-7.5
							C262.2,41.5,265.9,38.3,269.8,38.3"/>
						<path class="st10" d="M252.4,183.6c4.2,9.2,7.9,34.5,6.3,43.7c-6.5,0.5-13.2,1.8-19.8,1.4c-9.4-0.5-20.1-10.4-16.7-24.4
							C225.5,191,240.3,182,252.4,183.6"/>
						<path class="st11" d="M243.9,158.2c3.3,7.1,6.2,14.3,8,21.8c-4.5,1.1-8.7,1.8-12.7,3.2c-12.4,4.5-19.8,15.7-18.9,28
							c0.4,5.7,3,10.3,7,14.2c1.3,1.2,2.6,2.4,4.6,4.2c-7,0.9-13,1.7-19,2.4c-6.1,0.7-12.2,1.7-18.4,2.1c-4.6,0.3-9.3-0.1-13.9-0.6
							c-10.6-1.1-21.1-2.4-32.5-3.8c1.4-1.3,2.2-2.2,3.1-2.9c10.1-8.6,11.7-21.9,3.9-32.7c-5.7-7.9-13.7-11.9-23.2-13.2
							c-0.6-0.1-1.1,0-1.7-0.1c-0.5,0-1.1-0.2-2.1-0.4c0.3-1.4,0.4-2.9,0.8-4.2c1.8-5.1,3.9-10.1,5.6-15.3c1.3-4,3.9-5.6,7.9-5.7
							c4.2-0.1,8.2,0.6,11.8,2.8c4.3,2.5,6.3,6.2,5.8,11.2c-0.1,1.3-0.3,2.6-0.2,3.9c0.2,2.4,1.7,3.8,4.1,3.9
							c2.1,0.1,3.6-1.1,4.1-3.2c0.3-1.2,0.4-2.6,0.2-3.9c-1.9-11.6-11.2-19.6-23-19.8c-1.4,0-2.9,0-4.8,0c2.6-6.1,6.4-10.7,9.7-15.6
							c2.9-4.1,6.2-5.4,11.2-5.3c20.2,0.3,40.3,0.1,60.5,0c2.7,0,4.4,0.9,6.1,3c4.3,5.4,8.5,10.8,11.8,17.9c-2.8,0-4.6-0.1-6.5,0
							c-11.3,0.5-19.6,8.9-21.6,20c-0.2,1.1-0.1,2.3,0.1,3.3c0.5,2,1.9,3.3,4,3.4c2.4,0.1,3.9-1.3,4.3-3.6c0.2-1.2-0.1-2.6-0.3-3.9
							c-0.6-4,0.7-7.5,3.8-10c5.1-4.2,11.1-5.3,17.4-3.7C242.1,156.3,243.4,157.2,243.9,158.2 M204.3,187.6c1.5-0.8,2.4-2.5,0.3-4.2
							c-1.6,0.8-3.2,1.6-4.8,2.4c-2.8-2.2-5.5-4.6-9-1.6c-0.3,0.3-1.2,0.4-1.5,0.1c-3.7-3.2-6.5-0.4-9.5,1.6
							c-1.5-0.9-2.9-1.7-4.5-2.7c-2.1,2.3-1,3.9,0.5,4.7c3,1.7,3.1,4.3,3.1,7.1c0,6.4,0.4,12.6,3.4,18.6c1.7,3.4,3.6,5.3,7.6,5.4
							c4.3,0.1,6.2-2,8-5.6c3-5.9,2.9-12.3,3.4-18.6C201.4,191.8,201.3,189.2,204.3,187.6"/>
						<path class="st9" d="M216,236.6c3,8.7,9,87.6,7.5,98.1c-9.9,1.2-19.9-0.2-30.7-0.7v-94.5C200.3,238.6,208.2,237.6,216,236.6"
							/>
						<path class="st6" d="M211.2,63.2c-0.1,5.2-4.7,4.5-7.2,6.5c-0.8,5.6-1.6,11.3-2.4,17c-0.8,6.2-3.9,11.2-7.9,15.8
							c-2.2,2.4-5.4,2.2-7.8-0.2c-6.9-7.1-8.3-16.1-9.2-25.3c-0.3-2.4-0.4-4.8-0.5-6.7c-2.5-2.8-8-1.5-7.4-7c7.2,0.7,14.3,2,21.5,2
							C197.2,65.3,204.1,63.9,211.2,63.2 M189.4,97.2c5.9-4.1,10.1-16.3,9.6-26.4h-19.2C182.6,80.1,181.8,90.2,189.4,97.2"/>
						<path class="st6" d="M204.5,183.3c2.1,1.8,1.2,3.4-0.3,4.2c-3,1.7-2.9,4.3-3.2,7.1c-0.5,6.3-0.4,12.6-3.4,18.6
							c-1.8,3.6-3.7,5.7-8,5.6c-4-0.1-5.9-2-7.6-5.4c-2.9-5.9-3.3-12.2-3.4-18.6c0-2.9-0.1-5.5-3.1-7.1c-1.4-0.8-2.5-2.3-0.5-4.7
							c1.6,1,3,1.8,4.5,2.7c2.9-2.1,5.8-4.8,9.5-1.6c0.3,0.2,1.2,0.2,1.5-0.1c3.6-2.9,6.2-0.6,9,1.6
							C201.4,184.9,203,184.1,204.5,183.3 M194.6,212.2c3-3.7,5-15.6,3.2-21.2c-5.3,2.9-10.7,2-16.2,0.2c-1,6.5,0.2,15,2.6,19.4
							C186.8,215.3,191.4,216,194.6,212.2"/>
						<path class="st9" d="M198.9,70.9c0.6,10-3.7,22.3-9.6,26.4c-7.6-7-6.7-17.1-9.6-26.4H198.9z"/>
						<path class="st9" d="M197.7,191c1.8,5.5-0.1,17.5-3.2,21.2c-3.2,3.8-7.8,3.1-10.4-1.5c-2.4-4.4-3.6-12.9-2.6-19.4
							C187,193,192.5,193.9,197.7,191"/>
						<path class="st9" d="M186.9,239.7v94.1c-10.6,1-20.6,1.9-31.3,0.9c-0.4-33.1,4.9-65.1,7.1-97.9
							C171.3,237.2,179.3,238.4,186.9,239.7"/>
						<path class="st10" d="M157.9,206.9c1.6,12.3-8.6,22.9-20.9,21.7c-5.4-0.5-10.7-1-16.4-1.5c-0.6-15,2.3-29.2,6.1-43.3
							c3-1.6,6-0.3,8.8,0.2C147.1,186.2,156.5,195.8,157.9,206.9"/>
						<path class="st8" d="M158.6,236.1c-5.3,32.6-9.7,65-9.2,98.6c-5.4-0.5-10-0.8-14.5-1.3c-13.4-1.3-26.7-3.6-39.5-8
							c-8.7-3-16.9-7-24.4-12.4c-3.2-2.3-6.2-4.9-8.9-7.8l3.7-1.4c0.4,0.7,1.1,1.2,2.3,1.1c3.4-0.4,1.8-3.5,1.8-5.5
							c0.4-21,8-38.8,23.3-54.1c1.1,1.7,2,2.8,2.6,4c5.7,11.3,15.2,18.8,25.6,25.3c1.8,1.2,3.7,1.9,5.6,0c1.8-1.8,1.2-3.6,0.2-5.6
							c-4.4-9-7.6-29.3-6.2-38.3C133.4,232.6,145.7,234.3,158.6,236.1"/>
						<path class="st9" d="M142.6,129.5c-0.3,0.8-0.5,1.6-0.9,2.3c-2.6,4.8-5.3,9.4-7.8,14.2c-2,3.9-2.8,8.7-7.7,10.7
							c2.1,4,0.5,7.2-0.8,10.5c-10.3,25.3-13.8,51.5-11.6,78.6c0.4,4.4,1.1,8.9,1.8,14.3c-1.3-1.7-2.3-2.7-3-3.8
							c-5.8-9.6-8.7-20.2-10.2-31.2c-3.5-25.8,1.8-50.1,12.9-73.4c0.7-1.4,1-2.9,1.5-4.3c0.1-0.1,0.1-0.2,0.2-0.3c0-0.1,0-0.1,0-0.2
							c2.9-2.5,4.4-5.7,5.7-9.1c-2.9,2.4-5,5.4-5.7,9.1c0,0-0.1,0.1-0.1,0.1c0,0.1-0.1,0.2-0.1,0.4c-0.9,1.1-2,2.2-2.7,3.5
							c-8.3,16.2-12.9,33.3-14.3,51.4c-1.2,15,0.1,29.5,4.6,43.7c0.1,0.3-0.1,0.7-0.3,2.2c-1.2-2.5-2.2-4.1-2.9-5.8
							c-6.6-15.9-8.5-32.5-7.6-49.5c0.8-15.4,4.1-30.3,10-44.6c1-2.4,2.1-4.8,3.2-7.1c5.4-10.7,6.3-11.3,18.3-11.6
							C131,129.4,136.6,129.5,142.6,129.5"/>
						<path class="st9" d="M131.8,28.1c11.9,6.6,13.4,19.1,5.2,28.5c-11.3,13-26.4,17.9-43.5,13.9c-3.5-0.8-7-2.8-9.9-5
							c-5.8-4.4-7.5-11.2-5.2-18.1c1.8-5.3,5-9.6,9.3-13.1c8.2-6.4,17.4-10,27.9-10C121.3,24.3,126.8,25.3,131.8,28.1 M110.8,52.4
							c3.7-0.1,6.8-3.5,6.7-7.5c0-3.5-3.7-6.7-7.6-6.6c-3.1,0.1-5.9,3.4-5.7,7.1C104.3,49.1,107.4,52.4,110.8,52.4"/>
						<path class="st6" d="M117.3,146.9c0.7-3.8,2.9-6.7,5.7-9.1C121.7,141.2,120.1,144.4,117.3,146.9"/>
						<path class="st6" d="M117.5,44.9c0,4-3,7.4-6.7,7.5c-3.4,0.1-6.5-3.2-6.6-7c-0.1-3.6,2.6-7,5.7-7.1
							C113.8,38.2,117.5,41.4,117.5,44.9"/>
						<path class="st6" d="M117.3,146.9c0,0.1,0,0.1,0,0.2l-0.1-0.1C117.2,147,117.2,146.9,117.3,146.9"/>
						<path class="st9" d="M117.2,147.1c-0.1,0.1-0.1,0.2-0.2,0.3C117.1,147.2,117.1,147.1,117.2,147.1L117.2,147.1z"/>
						<path class="st7" d="M102,130.3c-0.4,4.4-4.3,13.6-6.6,15.9c-13,13.3-24.5,27.7-33.8,43.9c-1.8,3.2-4,6.3-6,9.3
							c-20.8-2.7-41.3-21.4-47.5-43.8C37.7,140.2,69.6,134.6,102,130.3"/>
						<path class="st8" d="M90.7,237.3c1.2,2.5,0.8,4.3-1.4,6.4c-10.9,10-17.6,22.6-22.1,36.5c-2.1,6.4-3.6,13-2.2,19.9
							c0.2,1.2,0.2,2.9,0.8,3.9l-3.7,1.4c-3.4-3.6-6.4-7.7-8.8-12.2c-1.8-3.4-2.9-7-1.6-10.8c1.9-5.3,3.4-10.7,6-15.6
							c6.4-11.8,15.3-21.6,26.1-29.6c1.6-1.2,3.4-2.1,5.4-3.4C90,235.4,90.3,236.4,90.7,237.3"/>
						<path class="st8" d="M87.8,164.2c0.8-1.1,1.9-2.1,3-3.4c-2,14.5-4,28.7-6.1,43.4c-18.4,11.4-26,18.9-26.5,26.7
							c3.6-0.9,5.2-4.1,7.8-5.9c2.5-1.7,5.1-3.5,7.9-4.7c-3.8,5.1-7.5,10.2-11.3,15.4c0,0,0.2,0.3,0.6,0.9
							c7.8-4.3,14.3-10.9,23.8-13.7c0.5,2.3,0.9,4.4,1.3,6.7c-17.9,12.5-30.8,28.8-39.5,48.5c-0.4-0.1-0.8-0.2-1.2-0.2
							c-0.4-4.3-1.2-8.7-1.2-13c-0.2-14.4,3.1-28.2,8.2-41.6C62.8,201.9,74.4,182.6,87.8,164.2"/>
						<path class="st9" d="M85.3,214.4c1.2,1.8,2.2,3.4-0.5,4.5c-2,0.8-4.1,1.5-6.2,2.2c-0.2-0.3-0.4-0.6-0.5-0.9
							C80.4,218.4,82.7,216.5,85.3,214.4"/>
						<path class="st9" d="M85.4,207.8c0.2,1.4,0.3,2.6,0.4,3.5c-3.2,1.2-6.3,2.1-9.1,3.5c-2.8,1.4-5.3,3.2-8.1,4.6
							C73,214.1,78.4,210.2,85.4,207.8"/>
					</g>
				</g>
			</g>
		</g>
	</g>
</g>
</svg>
