<!-- Generator: Adobe Illustrator 24.0.0, SVG Export Plug-In  -->
<svg version="1.1" xmlns="http://www.w3.org/2000/svg" xmlns:xlink="http://www.w3.org/1999/xlink" x="0px" y="0px" width="88.82px"
	 height="88.82px" viewBox="0 0 88.82 88.82" style="enable-background:new 0 0 88.82 88.82;" xml:space="preserve">
<style type="text/css">
	.st0{clip-path:url(#SVGID_3_);}
	.st1{clip-path:url(#SVGID_4_);fill:#FFFFFF;}
	.st2{clip-path:url(#SVGID_4_);fill:none;stroke:#745A32;stroke-width:5.1399;stroke-miterlimit:10;}
	.st3{clip-path:url(#SVGID_4_);fill:none;stroke:#745A32;stroke-width:2.2025;stroke-miterlimit:10;}
	.st4{clip-path:url(#SVGID_6_);}
	.st5{clip-path:url(#SVGID_8_);fill:#FFFFFF;}
	.st6{clip-path:url(#SVGID_8_);fill:none;stroke:#745A32;stroke-width:5.1399;stroke-miterlimit:10;}
	.st7{clip-path:url(#SVGID_8_);fill:none;stroke:#745A32;stroke-width:2.2025;stroke-miterlimit:10;}
</style>
<defs>
</defs>
<g>
	<g>
		<defs>
			<rect id="SVGID_1_" width="88.82" height="88.82"/>
		</defs>
		<clipPath id="SVGID_3_">
			<use xlink:href="#SVGID_1_"  style="overflow:visible;"/>
		</clipPath>
		<g class="st0">
			<defs>
				<rect id="SVGID_2_" width="88.82" height="88.82"/>
			</defs>
			<clipPath id="SVGID_4_">
				<use xlink:href="#SVGID_2_"  style="overflow:visible;"/>
			</clipPath>
			<path class="st1" d="M86.25,44.41c0,23.11-18.73,41.84-41.84,41.84S2.57,67.52,2.57,44.41S21.3,2.57,44.41,2.57
				S86.25,21.3,86.25,44.41"/>
			<path class="st2" d="M86.25,44.41c0,23.11-18.73,41.84-41.84,41.84S2.57,67.52,2.57,44.41S21.3,2.57,44.41,2.57
				S86.25,21.3,86.25,44.41z"/>
			<path class="st1" d="M79.19,44.41c0,19.21-15.57,34.78-34.78,34.78c-19.21,0-34.78-15.57-34.78-34.78
				C9.63,25.2,25.2,9.63,44.41,9.63C63.62,9.63,79.19,25.2,79.19,44.41"/>
			<path class="st3" d="M79.19,44.41c0,19.21-15.57,34.78-34.78,34.78c-19.21,0-34.78-15.57-34.78-34.78
				C9.63,25.2,25.2,9.63,44.41,9.63C63.62,9.63,79.19,25.2,79.19,44.41z"/>
		</g>
	</g>
</g>
</svg>
