<!-- Generator: Adobe Illustrator 24.0.0, SVG Export Plug-In  -->
<svg version="1.1" xmlns="http://www.w3.org/2000/svg" xmlns:xlink="http://www.w3.org/1999/xlink" x="0px" y="0px" width="86.3px"
	 height="64.3px" viewBox="0 0 86.3 64.3" style="enable-background:new 0 0 86.3 64.3;" xml:space="preserve">
<style type="text/css">
	.st0{fill:#8C5E3D;}
</style>
<defs>
</defs>
<path class="st0" d="M36.2,27.6c-3.3,8.6-7.7,15.9-13.2,21.9c-5.4,6-11.8,10.6-19.1,13.9c-2.3,1-3.6,1.2-3.9,0.6
	c-0.3-0.6,0.5-1.7,2.5-3.3c4-3.3,7.3-6.2,9.9-8.8c2.7-2.6,4.9-5.1,6.8-7.5c1.9-2.4,3.4-5,4.8-7.6c1.3-2.6,2.6-5.6,3.9-9
	c1.3-3.5,2.3-6.4,3.1-8.9c0.7-2.5,1.3-4.6,1.5-6.4c0.3-1.8,0.4-3.2,0.2-4.4c-0.1-1.2-0.4-2.1-0.8-2.9c-1.4-2.7-1.7-4.3-1-4.9
	c0.8-0.6,3.1-0.1,6.9,1.5c1.7,0.7,3,1.4,3.9,1.9c0.9,0.6,1.6,1.1,1.9,1.7c0.4,0.6,0.5,1.1,0.4,1.7C44,7.6,43.7,8.2,43.3,9
	c-0.2,0.4-0.6,1-0.9,1.7c-0.4,0.7-0.7,1.5-1.1,2.4c-0.4,0.9-0.7,1.7-1.1,2.6c-0.3,0.9-0.6,1.7-0.8,2.4c-0.2,0.8-0.5,1.6-0.6,2.3
	c-0.2,0.7-0.4,1.5-0.7,2.2c2.3,2.7,4.3,5,6,7c1.7,2,3.3,3.7,4.7,5.2c1.4,1.5,2.6,2.8,3.8,4c1.1,1.1,2.2,2.2,3.2,3.2c1,1,2,1.9,3,2.7
	c1,0.9,2.1,1.8,3.2,2.8c1.7,1.4,3.4,2.7,4.9,3.8c1.5,1.1,3.1,2,4.6,2.9c1.6,0.8,3.2,1.6,5,2.2c1.8,0.6,3.7,1.3,5.9,1.9
	c2.7,0.8,4.1,1.6,4,2.5c0,0.9-1.4,1.4-4.1,1.7c-4.6,0.4-8.3,0.6-10.9,0.7c-2.6,0.1-4.7,0-6.2-0.3c-1.5-0.3-2.6-0.8-3.5-1.5
	c-0.8-0.7-1.7-1.8-2.7-3.1c-1.3-1.7-2.8-3.8-4.6-6.2c-1.8-2.4-3.6-4.9-5.7-7.6c-2-2.7-4.1-5.5-6.2-8.4
	C40.4,33.1,38.3,30.3,36.2,27.6z"/>
</svg>
