<!-- Generator: Adobe Illustrator 24.0.0, SVG Export Plug-In  -->
<svg version="1.1" xmlns="http://www.w3.org/2000/svg" xmlns:xlink="http://www.w3.org/1999/xlink" x="0px" y="0px" width="70.4px"
	 height="81px" viewBox="0 0 70.4 81" style="enable-background:new 0 0 70.4 81;" xml:space="preserve">
<style type="text/css">
	.st0{fill:#8C5E3D;}
</style>
<defs>
</defs>
<path class="st0" d="M29,25.4c-2.8,0.2-5.1,0.3-6.8,0.3c-1.7-0.1-3.4-0.4-5.1-0.9c-1.9-0.6-2.7-1.2-2.6-1.8c0.1-0.6,1.3-0.9,3.5-0.9
	c2.7-0.1,6.3-0.3,10.7-0.8c4.4-0.5,9.1-1.4,14-2.6c1.1-0.2,2.1-0.4,2.9-0.6c0.8-0.2,1.6-0.2,2.3-0.2c0.7,0,1.3,0.1,1.9,0.2
	c0.6,0.1,1.3,0.3,2,0.6c1.6,0.6,2.4,1.3,2.3,2.1c-0.1,0.9-1.3,1.5-3.8,2c-1.2,0.2-2.4,0.4-3.4,0.6c-1,0.2-2.1,0.3-3.2,0.5
	c-1.1,0.2-2.4,0.3-3.8,0.5c-1.4,0.2-3,0.3-5,0.5c1.4,0.7,2.2,1.2,2.4,1.5c0.2,0.3,0.2,0.7-0.1,1.2c-0.3,0.7-0.6,1.2-0.7,1.6
	c-0.2,0.4-0.3,0.8-0.5,1.2c0.4-0.1,0.9-0.2,1.6-0.3c0.7-0.1,1.5-0.2,2.2-0.4c0.8-0.1,1.5-0.2,2.2-0.3c0.7-0.1,1.2-0.1,1.5-0.1
	c0.7-0.1,1.5,0,2.4,0.1c0.9,0.1,1.5,0.3,2,0.6c0.9,0.5,1.3,1.1,1.2,1.9c-0.1,0.7-1.1,1.2-3.1,1.5c-0.5,0.1-1.1,0.1-1.9,0.2
	c-0.8,0.1-1.7,0.2-2.6,0.3c-0.9,0.1-1.9,0.2-2.9,0.4c-1,0.1-1.9,0.2-2.9,0.4v5.7c1.5-0.2,3.1-0.4,4.7-0.6c1.6-0.2,3.2-0.4,4.6-0.6
	c1.5-0.2,2.8-0.4,4.1-0.6c1.2-0.2,2.3-0.4,3.1-0.6c2.1-0.4,3.6-0.6,4.5-0.4c0.9,0.2,1.9,0.6,2.9,1.3c1.1,0.7,1.9,1.4,2.5,2.1
	c0.5,0.6,0.6,1.2,0.3,1.6c-0.3,0.4-1.2,0.7-2.5,0.9c-1.4,0.2-3.4,0.2-6.1,0c-1.1-0.1-3.4-0.1-7,0c-3.6,0.2-8.9,0.5-15.7,1.1
	c1.5,0.6,2.7,1,3.6,1.4c0.8,0.4,1.4,0.7,1.8,1c0.3,0.3,0.5,0.6,0.4,0.9c-0.1,0.3-0.3,0.6-0.5,1c-0.2,0.2-0.4,0.6-0.6,1
	c-0.2,0.4-0.4,1.2-0.7,2.2c1.7-0.2,3.8-0.5,6.3-0.8c2.4-0.4,4.8-0.7,7.2-1.1c2.3-0.3,4.5-0.7,6.3-1c1.9-0.3,3-0.5,3.5-0.6
	c2-0.5,3.8-0.6,5.2-0.2c1.5,0.4,2.9,1,4.3,1.9c1,0.6,1.7,1.3,2.1,1.9c0.4,0.6,0.4,1.2,0.1,1.7c-0.3,0.5-1.1,0.8-2.3,1
	c-1.2,0.2-2.8,0.2-4.9-0.1c-0.5-0.1-1.4-0.1-2.7,0c-1.3,0-2.9,0.1-4.7,0.1c-1.8,0.1-3.8,0.2-5.8,0.3c-2.1,0.1-4.1,0.2-6,0.4
	c-1.9,0.1-3.8,0.2-5.4,0.4c-1.7,0.1-3,0.2-4,0.3c-0.2,0.7-0.5,1.5-0.8,2.3c-0.3,0.8-0.6,1.7-1.1,2.6c-0.5,0.9-1.1,2-1.8,3.1
	c-0.7,1.1-1.6,2.5-2.7,3.9c-2.8,3.8-6.1,6.6-9.8,8.6c-3.7,2-7.8,3.3-12.5,4c-2.7,0.4-4,0.3-4.2-0.3c-0.1-0.6,1-1.4,3.2-2.4
	c1.9-0.8,3.5-1.6,5-2.4c1.5-0.8,2.8-1.6,4-2.5c1.2-0.9,2.4-1.8,3.5-2.7c1.1-1,2.2-2,3.3-3.2c0.9-0.9,1.7-1.8,2.4-2.6
	c0.6-0.8,1.2-1.6,1.8-2.4c0.5-0.8,1-1.6,1.3-2.4c0.4-0.8,0.7-1.8,1-2.8c-0.7,0.1-2,0.3-3.7,0.5c-1.7,0.2-3.5,0.4-5.3,0.7
	c-1.9,0.2-3.6,0.5-5.3,0.7c-1.7,0.2-2.8,0.5-3.4,0.6c-0.7,0.2-1.4,0.3-1.9,0.4c-0.5,0.1-1.1,0-1.6-0.1c-0.5-0.2-1.1-0.4-1.7-0.7
	c-0.6-0.3-1.3-0.7-2.2-1.3c-1.5-0.9-2.2-1.7-1.9-2.2c0.3-0.5,1.6-0.7,4-0.6c0.4,0,1.6-0.1,3.5-0.2c1.9-0.1,4.1-0.3,6.6-0.5
	c2.5-0.2,5-0.4,7.6-0.7c2.5-0.2,4.6-0.5,6.2-0.6c0.3-1.4,0.4-2.7,0.3-4c-0.1-1.3-0.5-2.7-1.2-4.1c-1.2,0.1-2.4,0.2-3.3,0.4
	c-1,0.1-1.9,0.2-2.7,0.3c-0.8,0.1-1.7,0.2-2.5,0.4c-0.8,0.2-1.7,0.4-2.7,0.6c-0.9,0.2-1.7,0.3-2.3,0.4c-0.6,0.1-1.1,0.1-1.6,0
	c-0.5-0.1-0.9-0.2-1.3-0.5c-0.4-0.2-1-0.6-1.7-1.1c-3.2-2.2-2.7-3.2,1.3-3.2c1.5,0,4-0.2,7.5-0.5c3.5-0.3,7.7-0.6,12.7-1l-0.2-5.7
	c-5.6,0.4-9,0.2-10-0.6c-2.9-1.3-2.8-2.1,0.3-2.3c1.4-0.1,2.9-0.3,4.5-0.4c1.7-0.2,3.3-0.4,5-0.6c-0.1-1.7-0.2-2.8-0.4-3.5
	C29.5,27,29.3,26.2,29,25.4z M29.7,10.2c0.2,1.4,0.1,2.5-0.1,3.4c-0.3,0.9-0.7,1.6-1.3,2c-0.6,0.4-1.2,0.5-1.9,0.4
	c-0.7-0.1-1.4-0.6-2.1-1.3c-0.7-0.8-1.4-1.7-2.1-2.6c-0.7-0.9-1.6-2.2-2.5-3.8c-1.1-1.7-1.5-2.8-1.3-3.2c0.3-0.4,1.3-0.5,3.1-0.2
	c2.8,0.4,4.8,1.1,6,1.9C28.8,7.6,29.5,8.7,29.7,10.2z M64,75.7c0.3,2.5-0.1,4-1.2,4.5c-1.1,0.6-2.6-0.1-4.6-1.9
	c-1.2-1.1-2.5-2.3-4.1-3.7c-1.6-1.4-3.3-2.9-5.1-4.5c-1.9-1.6-3.8-3.2-5.8-4.8c-2-1.6-4.1-3.2-6.1-4.6c-1.2-0.9-1.6-1.5-1.2-1.9
	c0.4-0.4,1.2-0.4,2.2-0.1c4.8,1.3,8.8,2.7,12.1,4.1c3.2,1.5,5.8,2.9,7.8,4.4c2,1.5,3.5,2.9,4.4,4.4C63.2,73,63.8,74.4,64,75.7z
	 M49.8,1.4c3.4,1.5,5.2,2.7,5.5,3.7c0.3,1-0.6,1.8-2.5,2.5c-0.4,0.1-0.8,0.3-1.3,0.6c-0.5,0.2-1.2,0.6-2.1,1.2
	c-0.9,0.5-2.1,1.3-3.7,2.2c-1.5,0.9-3.5,2.1-5.9,3.6c-1.8,1.1-2.9,1.5-3.3,1.1c-0.4-0.4-0.1-1.3,1.1-2.6c2.5-2.8,4.2-5.1,5.1-6.7
	c0.9-1.6,1.3-2.8,1.3-3.7c-0.3-1.7-0.1-2.8,0.7-3.1C45.3-0.2,47.1,0.2,49.8,1.4z"/>
</svg>
